<?xml version="1.0" encoding="UTF-8"?>
<svg id="Camada_2" data-name="Camada 2" xmlns="http://www.w3.org/2000/svg" viewBox="0 0 426.47 574.78">
  <defs>
    <style>
      .cls-1 {
        fill: #fff;
        stroke-width: 0px;
      }
    </style>
  </defs>
  <g id="Camada_3" data-name="Camada 3">
    <g>
      <path class="cls-1" d="m141.91,337.84c.86-.39,1.76-.71,2.56-1.19,2.36-1.4,4.71-2.81,7.01-4.32.57-.38,1.16-1.04,1.32-1.69,2.27-8.89,6.44-17.05,9.62-25.58,1.15-3.08,2.11-6.23,3.18-9.34.69-1.99,1.43-3.97,2.18-6.06-.36-.17-.77-.44-1.21-.54-3.77-.86-5.71-3.58-6.95-6.92-1.6-4.3-3.07-8.64-4.63-12.96-.35-.96-.76-1.93-1.32-2.78-1.75-2.69-2.82-5.82-5.13-8.16-.6-.61-1.18-1.25-1.83-1.94,1.03-.96,2.26-1.04,3.53-.52,2.12.87,4,2.09,5.36,4.01.95,1.34,2.15,2.51,2.99,3.91,2.75,4.58,5.53,9.15,7.39,14.2.24.64.51,1.28.83,1.88,1,1.84,2.59,2.65,4.62,2.07,1.43-.41,2.91-.95,4.11-1.81,3.96-2.81,8.43-4.55,12.88-6.34.88-.36,1.82-.6,2.75-.84,3.98-1.02,7.98-2,11.95-3.03,2.23-.58,4.47-.7,6.72-.2,1.73.39,2.83,1.28,2.86,2.28.03,1.08-1.05,2.2-2.69,2.76-.39.13-.79.28-1.19.3-3.55.14-6.84,1.36-10.15,2.46-1.43.48-2.9.82-4.32,1.33-1.93.68-3.93,1.27-5.71,2.24-2.94,1.61-5.68,3.57-8.59,5.23-2.07,1.18-4.25,2.22-6.48,3.06-.94.35-1.44.8-1.9,1.62-1.33,2.35-2.12,4.89-2.89,7.46-2.5,8.36-6.14,16.29-9.41,24.36-.77,1.89-1.49,3.78-1.88,6.17,3.04-1.47,5.49-3.16,7.73-5.17,4.69-4.21,9.51-8.29,14.06-12.65,5.3-5.07,10.38-10.36,15.52-15.59,2.98-3.03,5.82-6.2,8.82-9.21,5.08-5.1,10.25-10.11,15.37-15.18.52-.52,1.02-1.14,1.3-1.8,1.65-3.99,3.17-8.03,4.87-12,1.48-3.46,3.04-6.9,4.72-10.27,1.66-3.31,3.61-6.47,5.27-9.78,2.2-4.38,3.62-9.02,3.98-13.95.21-2.87.88-5.71.38-8.6-.28-1.61-.6-3.23-1.1-4.78-.21-.65-.97-1.11-1.39-1.72-.24-.35-.29-.83-.43-1.25.49-.04,1.08-.27,1.46-.08,1.21.61,1.99,1.67,2.42,2.95,1.26,3.72,2.01,7.49,2.06,11.47.06,4.64-.23,9.18-1.66,13.61-.44,1.37-.92,2.74-1.53,4.03-1.56,3.28-3.27,6.49-4.79,9.79-1.69,3.67-3.24,7.4-4.85,11.11-.13.29-.19.61-.39,1.28.69-.44,1.08-.66,1.44-.92,3.98-2.92,7.93-5.88,11.93-8.76,3.36-2.43,7.17-3.98,11.05-5.39,6.41-2.33,13.03-3.78,19.74-4.84,1.68-.27,3.41-.31,5.12-.33,3.98-.04,7.96-.05,11.94.03,1.7.04,3.4.33,5.37.54.13-.7.31-1.47.43-2.25.62-4.18,1.95-8.13,3.92-11.84,1-1.88,2.36-3.53,4.34-4.55.47-.24.9-.62,1.24-1.02,1.37-1.66,3.11-2.73,5.21-2.99,2.75-.34,5.38-.06,7.98,1.25,5.21,2.63,9.44,6.27,12.77,11.05,3.85,5.52,7.89,10.91,10.56,17.14,1.35,3.15,2.58,6.36,3.65,9.61,1.54,4.69,3.05,9.4,4.28,14.18,1.09,4.24,1.84,8.57,2.64,12.88.39,2.08.6,4.2.78,6.32.79,8.81,1.57,17.63,2.29,26.44.43,5.35.13,10.69-.3,16.03-.59,7.32-.94,14.65-1.57,21.96-.3,3.48-1.02,6.91-1.48,10.38-.76,5.71-1.45,11.43-2.2,17.14-.28,2.15-.66,4.28-1,6.42h-.45c-.11-1.17-.25-2.34-.33-3.52-.44-6.39.56-12.73.64-19.1.13-10.15.18-20.31.03-30.46-.1-6.44-.52-12.89-.99-19.32-.28-3.75-1.03-7.46-1.45-11.21-1.16-10.4-3.85-20.47-6.13-30.64-2.14-9.53-5.67-18.44-10.62-26.84-2.37-4.02-4.59-8.13-7.75-11.62-1.84-2.03-3.65-4.12-5.68-5.95-1.52-1.37-3.43-2.25-5.56-2.46-1.16-.11-2.32-.21-3.46-.41-.77-.13-1.32,0-1.73.71-.53.91-1.25,1.55-2.36,1.82-.45.11-.83.83-1.08,1.35-1.62,3.39-2.17,7.03-2.58,10.74.28.2.47.43.71.5,6,1.98,11.75,4.56,17.36,7.45,3.26,1.68,6.12,3.76,8.43,6.71,1.58,2.01,3.03,4.03,4.05,6.37,1.15,2.64.32,5.23-2.05,6.25-2.34,1.01-4.74-.03-5.9-2.55-1.71-3.7-4.15-6.77-7.86-8.61-4.78-2.38-9.62-4.66-14.44-6.96-.6-.29-1.27-.42-2.15-.7-.54,3.03-1.05,5.93-1.57,8.81-.66,3.64-1.39,7.28-2,10.93-.44,2.64-.7,5.3-1.08,7.94-.54,3.8-1.16,7.59-1.67,11.4-.69,5.16-1.32,10.34-1.94,15.51-.61,5.04-1.25,10.07-1.75,15.12-.36,3.55-.6,7.11-.74,10.67-.24,6.51-.37,13.03-.54,19.55,0,.33.04.66.08,1.23.78-.21,1.41-.39,2.04-.56,2.37-.63,4.59.49,5.3,2.67.75,2.28-.46,4.59-2.87,5.35-1.49.48-3.01.86-4.71,1.34,0,1.28.03,2.5,0,3.71-.26,8.16-.54,16.31-.8,24.47-.11,3.43-.1,6.86-.24,10.29-.4,9.95.14,19.89.41,29.83.18,6.51.22,13.04.61,19.54.32,5.33,1.08,10.64,1.61,15.96.29,2.93.52,5.87.76,8.81.05.61.02,1.24.11,1.85.75,5.35,1.54,10.7,2.29,16.05.22,1.56.44,3.13.52,4.7.12,2.21-1.37,3.9-3.47,4.1-2,.19-3.82-1.09-4.15-3.18-.47-2.91-.76-5.84-1.12-8.76-.34-2.78-.68-5.57-1.02-8.35-.15-1.22-.39-2.44-.49-3.67-.47-5.4-.96-10.79-1.35-16.19-.45-6.29-.98-12.59-1.14-18.89-.28-11.24-.56-22.5-.38-33.74.18-11.45.96-22.89,1.39-34.34.15-3.9.02-7.81.02-11.91-.76-.08-1.48-.18-2.21-.22-2.33-.12-4.66-.16-6.99-.35-4.23-.34-8.15-1.75-11.89-3.68-1.9-.98-3.8-1.83-5.95-2.19-1.53-.25-3.02-.89-4.49-1.44-1.73-.65-3.45-1.34-5.12-2.13-1.17-.56-2.32-1.21-3.34-2-3.37-2.58-6.71-5.21-10-7.9-1.11-.9-2.18-1.93-3.02-3.08-2.02-2.76-4.01-5.55-5.79-8.47-2.33-3.82-3.77-8.06-5.18-12.28-.65-1.95-1.26-3.91-1.76-5.9-1.01-4.04-.84-8.17-.64-12.28.22-4.51.08-9.07,1.4-13.47.09-.29.01-.64.01-1.19-.44.31-.74.46-.96.69-5.73,5.8-11.44,11.63-17.19,17.42-2.22,2.24-4.61,4.31-6.75,6.63-4.4,4.75-9.48,8.73-14.31,12.99-3.75,3.3-7.73,6.35-11.8,9.26-2.32,1.66-5,2.85-7.55,4.18-1.09.56-1.8,1.28-2.31,2.44-2.01,4.63-3.17,9.48-4.13,14.41-.31,1.61-.72,3.21-1.13,4.8-1.87,7.31-3.77,14.6-5.61,21.92-.88,3.52-1.63,7.08-2.43,10.63-.09.38-.14.77-.27,1.54,2.13-.61,4.03-1.06,5.86-1.71,8.63-3.09,16.68-7.29,24.24-12.51,4.92-3.39,9.89-6.68,14.31-10.72,4.55-4.16,9.41-8.03,12.93-13.2,2.31-3.4,4.53-6.87,6.74-10.34,1.18-1.85,2.25-3.76,3.38-5.63,1-1.65,3-2.22,4.65-1.34,1.58.84,2.24,2.68,1.53,4.42-.28.69-.65,1.37-1.07,1.99-3.04,4.57-5.97,9.21-9.19,13.65-2.08,2.87-4.4,5.63-6.96,8.09-4.89,4.72-10.03,9.18-15.76,12.87-4.43,2.86-9.03,5.46-13.58,8.13-1.77,1.04-3.6,1.99-5.43,2.94-5.54,2.9-11.34,5.17-17.33,6.96-1.44.43-2.89.88-4.36,1.21-.9.2-1.19.7-1.33,1.54-.58,3.59-1.08,7.2-1.85,10.75-2.38,11.01-3.36,22.23-5.26,33.32-1.3,7.63-2.38,15.31-3.26,23.01-.92,8.04-1.9,16.08-1.96,24.19-.03,4.11-.22,8.22-.34,12.33,0,.27.01.55-.02.82-.19,1.8-1.45,3.08-3.17,3.23-1.83.16-3.48-.92-3.74-2.79-.28-2.02-.38-4.1-.27-6.14.65-12.26,1.74-24.49,3.45-36.65.58-4.14,1.55-8.22,2.21-12.35,1.49-9.34,2.83-18.71,4.37-28.04.73-4.39,1.78-8.73,2.68-13.1.47-2.28.92-4.57,1.36-6.86.13-.66.17-1.33.28-2.25-1.69-.02-3.25-.11-4.8-.05-3.26.13-6.43-.07-9.43-1.56-.78-.39-1.71-.51-2.59-.63-5.11-.75-9.24-3.33-12.81-6.89-.67-.66-1.53-1.41-.94-2.65,2.42,1.22,4.77,2.37,7.1,3.58,1.91.99,3.9,1.62,6.05,1.88,2.04.25,4.07.63,6.07,1.11,4.14,1.01,8.3.26,12.46.49,4.8-17.51,9.53-34.79,14.32-52.28-2.35,1-4.32,1.93-6.36,2.69-1.86.69-3.78,1.22-5.69,1.77-.9.26-1.54.71-2.08,1.51-2.93,4.39-5.75,8.88-8.95,13.07-2.86,3.75-6.14,7.19-9.29,10.72-4.39,4.92-9.86,8.43-15.37,11.95-4.2,2.68-8.75,4.27-13.47,5.44-3.79.95-7.73,1.44-11.62.53-3.25-.76-6.24-2.11-8.21-5.04-.25-.37-.65-.62-1.31-1.23.68,3.93,1.29,7.43,1.9,10.92,2.07,11.75,4.16,23.5,6.22,35.25.08.47.15.97.06,1.42-.13.68-.6,1.09-1.33.97-1.38-.23-2.76-1.7-3.02-3.19-.43-2.57-.84-5.14-1.27-7.72-2.31-14.08-4.63-28.15-6.94-42.23-.13-.79-.19-1.59-.34-2.8,1.56,1.47,2.82,2.67,4.11,3.86.65.6,1.27,1.28,2.02,1.73,1.63.99,3.33,1.88,5.02,2.79,2.43,1.3,4.98,1.59,7.75,1.46,4.12-.2,7.96-1.42,11.79-2.68,3.49-1.15,6.35-3.49,9.43-5.42,7.27-4.56,12.83-10.92,18.17-17.46,2.68-3.28,4.88-6.96,7.29-10.46.06-.09,0-.26,0-.65-1.43.22-2.87.29-4.21.69-5.89,1.74-11.83,1.05-17.76.42-1.54-.16-2.84-.86-3.81-2.52.76-.03,1.33-.08,1.9-.08,5.5-.03,10.96-.51,16.33-1.65,3.54-.75,6.99-1.95,10.49-2.92,1.28-.36,2.15-1.12,2.69-2.33,1.57-3.5,3.22-6.96,4.74-10.48,1.9-4.4,3.7-8.85,5.54-13.28,2.03-4.89,3.46-9.96,4.32-15.19.75-4.6,1.88-9.14,1.79-13.84-.02-.87.34-1.75.43-2.63.2-1.9.34-3.8.52-5.69.06-.61.06-1.24.21-1.83.3-1.18,1.06-1.49,2.18-.96.98.46,1.63,1.16,1.94,2.25,1.46,5.02,1.7,10.09.97,15.27-.77,5.46-2.32,10.71-3.78,15.99-1.3,4.69-2.53,9.41-4.24,13.95-1.76,4.67-4.05,9.15-6.11,13.7-.14.3-.28.61-.42.91.1.1.2.21.3.31Zm152.04-88.24c-1.26-.19-2.39-.44-3.52-.5-1.99-.1-3.98,0-5.96-.12-5.85-.36-11.6.15-17.36,1.3-9.55,1.91-18.39,5.25-26.22,11.19-5.7,4.32-11.11,8.93-16.16,13.99-.47.47-.97,1.03-1.19,1.64-1.84,5.05-3.04,10.27-3.34,15.63-.21,3.83-.05,7.68.02,11.52.03,1.5.11,3.03.44,4.49,1.45,6.31,3.72,12.33,6.96,17.93,1.16,2,2.68,3.79,4,5.71,1.27,1.83,2.81,3.35,4.72,4.52.64.39,1.3.8,1.84,1.3,3.92,3.64,8.32,6.46,13.46,8.06,1.17.37,2.34.87,3.54,1.03,2.49.33,4.72,1.31,6.98,2.34,1.92.88,3.88,1.87,5.93,2.25,3.08.58,6.24.7,9.38.97.93.08,1.87.01,2.96.01.12-2.72.23-5.17.32-7.63.2-5.28.31-10.56.62-15.83.55-9.53,2.08-18.94,3.53-28.36,1.31-8.47,2.43-16.97,3.86-25.41,1.05-6.21,2.47-12.37,3.72-18.55.49-2.41.97-4.82,1.5-7.49Z"/>
      <path class="cls-1" d="m358.26,78.37c-2.09-1.86-4.28-3.62-6.24-5.6-4.16-4.21-8.78-7.88-13.47-11.44-6.79-5.15-12.87-11.12-19.56-16.38-18.81-14.8-39.5-26.01-62.66-32.35-5.68-1.55-11.47-2.77-17.28-3.73-2.19-.36-4.32-.81-6.45-1.37-.33-.09-.68-.14-1.02-.14-6.37-.16-12.75-.5-19.12-.43-24.01.25-46.67,6.15-68.18,16.67-20.18,9.88-37.86,23.2-53.59,39.16-21.83,22.14-38.57,47.75-51.6,75.87-11.45,24.7-19.53,50.49-24.8,77.18-2.91,14.76-4.93,29.64-6.02,44.63-1.29,17.75-1.35,35.51-.19,53.28,1.88,28.6,6.89,56.62,15.36,84,9.22,29.81,22.16,57.88,39.97,83.58,4.22,6.08,8.89,11.85,13.32,17.79,1.6,2.14,3.02,4.41,4.66,6.51,4.39,5.61,8.76,11.25,13.33,16.71,2.5,2.99,5.4,5.64,8.12,8.44.66.68,1.32,1.37,1.98,2.06-.09.11-.17.22-.26.33-.55-.43-1.1-.85-1.64-1.29-23.68-19.78-43.18-43.07-58.57-69.81-16-27.79-27.21-57.45-34.55-88.62-3.26-13.83-5.68-27.82-7.3-41.93-2.2-19.19-2.89-38.44-2.33-57.75.28-9.68.83-19.33,1.86-28.96,5.07-47.48,18.11-92.5,41.87-134.14,10.76-18.86,23.6-36.18,38.74-51.79,15.48-15.97,32.68-29.67,52.45-40,16.37-8.56,33.64-14.39,51.92-17.13C197.98.08,209.01-.29,220.08.2c6.45.29,12.82,1.1,19.19,2.12,24.37,3.87,46.41,13.43,66.73,27.14,19.59,13.22,36.55,29.37,51.62,47.53.3.37.58.75.87,1.13-.08.09-.15.17-.23.26Z"/>
      <path class="cls-1" d="m129.67,544.81c.65.36,1.31.71,1.95,1.08,16.31,9.23,33.59,15.85,52.06,19.2,5.53,1,11.1,1.9,16.69,2.43,3.65.35,7.37.66,11.08,0,1.38-.24,2.86.1,4.3.08,10.74-.22,21.32-1.65,31.77-4.13,17.36-4.13,33.59-11.02,48.81-20.28,2.04-1.24,3.91-2.75,5.9-4.07.95-.63,2.05-1.02,2.99-1.67,17.75-12.15,33.1-26.88,46.55-43.61,18.56-23.08,32.68-48.7,43.41-76.24,8.57-21.99,14.67-44.66,18.67-67.91,4.28-24.9,6.01-49.99,5.21-75.23-1.46-46.07-10.62-90.48-29.12-132.83-5.88-13.48-12.72-26.45-20.56-38.89-.32-.51-.61-1.05-.8-1.71,1.06.26,1.83.98,2.51,1.74,2.48,2.75,4.87,5.58,7.37,8.3,3.8,4.13,6.54,8.95,9.34,13.75.76,1.3,1.78,2.45,2.49,3.77,1.85,3.44,3.75,6.86,5.37,10.41,8.38,18.33,14.83,37.33,19.73,56.86,3.91,15.58,6.76,31.37,8.58,47.33,2.2,19.32,2.87,38.71,2.3,58.15-.35,12.01-1.18,23.98-2.69,35.9-5.72,45.2-18.75,88.03-41.59,127.65-15.47,26.84-34.95,50.34-59.02,69.91-4.84,3.93-10,7.46-15.08,11.09-1.55,1.11-3.32,1.9-4.98,2.85-.65.37-1.42.65-1.92,1.18-1.59,1.7-3.7,2.54-5.66,3.63-17.07,9.48-35.18,15.99-54.48,19.04-5.48.87-11,1.7-16.53,2.09-4.29.3-8.62-.13-12.94-.23-1.16-.03-2.33-.11-3.49-.07-6.33.21-12.58-.22-18.77-1.66-5.07-1.19-10.25-1.95-15.27-3.28-5.49-1.46-10.88-3.3-16.29-5.08-3.2-1.05-6.18-2.55-8.89-4.63-3.86-2.95-7.93-5.64-11.82-8.56-2.56-1.92-4.97-4.06-7.45-6.1.09-.08.18-.17.26-.25Z"/>
      <path class="cls-1" d="m45.31,275.96c2.68.38,5.15.96,7.65,1.05,5.72.21,10.71,7.45,6.02,14.11-1.2,1.71-2.83,3.19-4.46,4.52-1.7,1.38-2.23,2.85-1.84,5.01,2.01,10.99,3.9,22.01,6.15,33.13.27-.64.61-1.26.79-1.93,1.22-4.46,3.81-7.96,7.21-11.02,5.05-4.55,9.69-9.5,13.95-14.79,2.19-2.72,4.41-5.43,6.36-8.31,3.38-5,6.31-10.27,8.75-15.81,2.71-6.14,5.57-12.22,8.26-18.37,1.34-3.07,2.48-6.24,3.63-9.39,1.46-3.99,3.1-7.88,5.13-11.65,2.15-3.99,4.37-7.92,6.83-11.71,2.43-3.73,4.96-7.41,7.62-10.98,2.87-3.85,5.89-7.59,8.94-11.29,3.65-4.42,8.04-8.08,12.66-11.41,4.33-3.12,9-5.78,13.36-8.88,5.48-3.91,11.59-6.47,17.81-8.85,1.66-.63,3.39-1.09,5.12-1.5,1.51-.35,2.82.43,3.33,1.75.55,1.43.03,2.91-1.49,3.6-1.55.71-3.22,1.17-4.8,1.8-5.73,2.3-11.29,4.88-16.45,8.37-5.84,3.96-12,7.44-17.36,12.11-3.22,2.8-6.28,5.71-8.93,9.07-5.41,6.83-10.87,13.61-15.38,21.1-4.35,7.23-8.51,14.53-11.28,22.57-1.36,3.94-3.35,7.66-5.05,11.48-1.67,3.75-3.23,7.56-5.04,11.25-2.14,4.36-4.33,8.72-6.82,12.89-2.45,4.11-5.18,8.07-8.03,11.92-2.03,2.75-4.32,5.34-6.74,7.75-4.12,4.11-8.43,8.02-12.65,12.02-2.03,1.92-3.44,4.26-4.39,6.87-1.57,4.31-3.07,8.64-4.64,12.94-.32.89-.83,1.71-1.4,2.86-.23-.7-.42-1.11-.49-1.53-2.38-14.13-4.73-28.27-7.14-42.4-.19-1.12-.66-2.21-1.09-3.28-1.06-2.65-1-5.28.43-7.73.82-1.4,1.87-2.75,3.1-3.79,2.41-2.05,1.37-4.98-.68-5.93-.92-.43-1.88-.89-2.87-1.07-3.62-.66-5.91-2.85-6.91-6.25-.33-1.13.03-2.56.37-3.78,1-3.6.77-7.05-.9-10.39-.24-.48-.54-.98-.94-1.33-.32-.28-.85-.52-1.26-.48-1.32.11-3.12,1.91-3.02,3.19.24,2.86.56,5.73,1.1,8.55.18.98,1.11,1.81,1.64,2.74.39.67.6,1.37.08,2.13-.16.24-.2.65-.13.95.35,1.67-.32,3.04-1.48,4.06-1.69,1.49-3.45,2.93-5.34,4.16-2.2,1.43-2.91,2.41-1.35,5.48.42.82.97,1.24,1.91,1.27,5.21.19,7.96,3.45,9.7,7.9.58,1.48.4,2.93-.28,4.38-.27.56-.38,1.29-.3,1.91.41,3.46.9,6.9,1.42,10.81-.67-.49-.95-.69-1.3-.95.76,4.53,1.5,8.98,2.25,13.44,2.39,14.2,4.75,28.41,7.19,42.6,2.43,14.12,4.92,28.24,7.45,42.34.43,2.42,1.31,4.76,1.73,7.18.6,3.51,1,7.05,1.43,10.59.06.51-.06,1.11-.29,1.56-.81,1.57-1.69,3.11-2.57,4.65-.99,1.72-1.97,3.45-3.02,5.14-.77,1.23-1.44,2.72-.49,3.82.95,1.12,2.52.56,3.82.01.63-.27,1.26-.54,1.92-.73,2-.58,3.66.02,4.95,1.61.78.96,1.49,1.97,2.23,2.96.25.33.46.68.73.99,1.19,1.37,2.14,1.25,2.92-.44.34-.74.52-1.55.71-2.35.3-1.27.52-2.55.82-3.82.39-1.67,1.48-2.67,3.16-2.76,1.54-.08,2.55-.8,3.38-1.98,1.13-1.6,1.03-3.23-.4-4.58-.84-.8-1.75-1.54-2.62-2.31-.55-.48-1.19-.92-.98-2,.57.15,1.09.23,1.56.43,2.09.86,4.1,1.81,5.82,3.37,1.69,1.53,1.87,3.28,1.18,5.23-.83,2.33-2.31,4.22-4.4,5.54-1.34.84-2.01,1.99-1.63,3.45.73,2.81-.6,4.81-2.38,6.61-2.12,2.15-4.79,2.87-7.75,2.43-1.84-.27-3.01-1.52-4.01-2.96-1.5-2.16-1.88-2.43-4.18-1.34-3.86,1.83-8.06-.88-9.13-5.15-1.23-4.89-.28-8.95,2.32-13.06,1.4-2.22,2.18-4.85,3.08-7.35.59-1.63.48-3.35.18-5.08-3.24-18.44-6.43-36.89-9.64-55.33-3.94-22.63-7.91-45.26-11.81-67.89-.23-1.32-.75-2.12-1.98-2.56-1.29-.46-2.54-1.04-3.83-1.47-2.21-.74-4.03-2.03-5.51-3.81-2.25-2.69-2.22-6.63.1-9.26,1.62-1.83,3.59-3.2,5.93-3.94,2.22-.7,3.98-2.07,5.88-3.68-.44-.7-.83-1.39-1.29-2.03-4.09-5.64-4.41-11.77-2.33-18.19.57-1.76,1.84-3.01,3.64-3.28,1.8-.27,3.69-.29,5.5-.09.83.09,1.74.84,2.33,1.53,2.15,2.52,3.41,5.45,3.44,8.82.02,1.71-.05,3.43-.02,5.15.03,2.21-.49,4.2-1.94,5.93-.26.32-.35.78-.51,1.16Z"/>
      <path class="cls-1" d="m269.59,184.43c.68.02,1.38.11,2.05.04,4.38-.48,8.56.59,12.78,1.48,8.43,1.78,16.02,5.58,23.51,9.6,7.61,4.08,15.16,8.28,22.74,12.41,3.72,2.03,7.68,3.32,11.95,3.33,1.56,0,3.12-.4,4.69-.47,1.28-.05,2.62-.08,3.84.23,1.8.47,2.19,1.54,1.08,3.06-.7.96-1.71,1.79-2.76,2.36-3.81,2.1-7.92,2.04-12.02,1.18-3.97-.83-7.73-2.25-11.31-4.24-9.04-5.04-18.1-10.04-27.27-14.84-6.14-3.21-12.67-5.42-19.51-6.82-4.14-.85-8.1-.82-12.2-.09-3.64.64-7.33.94-11.01,1.39-4.1.5-8,1.72-11.92,3.01-7.21,2.38-13.39,6.58-19.64,10.65-2.69,1.75-5.04,4.01-7.61,5.96-6.34,4.82-12.85,9.43-20.47,12.02-3.02,1.03-6.26,1.75-9.43,1.91-2.52.13-5.17-.51-7.52-1.76-.22-.12-.38-.34-.47-.85.76.09,1.55.06,2.26.29,3.05.99,5.95.57,8.79-.74,2.61-1.2,5.25-2.33,7.8-3.65,2.43-1.26,4.81-2.62,7.11-4.11,4.9-3.17,9.3-6.99,13.69-10.83,2.31-2.02,4.85-3.81,7.41-5.51,3.02-2.02,6.09-3.98,9.28-5.7,2.34-1.26,4.9-2.1,7.36-3.13.62-.26,1.24-.52,2.09-.88-.57-.44-.95-.79-1.38-1.05-5.18-3.17-10.85-5.28-16.51-7.3-2.72-.97-5.79-.96-8.7-1.37-2.9-.4-5.88-.38-9.02-1.55.64-.31,1-.56,1.39-.66,3.58-.89,7.1-2.07,10.86-2.12,4.4-.05,8.72.13,12.97,1.63,4.01,1.42,8.09,2.65,11.77,4.8,2.36,1.38,4.61,2.94,6.83,4.54.62.45,1.1.62,1.84.49,3.31-.57,6.63-1.04,9.94-1.62,1.6-.28,3.17-.74,4.75-1.13l-.06.05Z"/>
      <path class="cls-1" d="m169.52,119.94c-.33.74-.64,1.49-1.01,2.22-2.99,5.97-3.35,12.18-1.86,18.61.41,1.79.55,3.65.75,5.49.3,2.75-.63,5.14-2.31,7.25-1.15,1.45-2.42,2.79-3.6,4.22-.61.73-1.24,1.48-1.67,2.33-1.01,1.99-.71,4.01,1.06,5.36,3.77,2.87,3.36,7.98.73,10.94-1.53,1.72-3.29,3.11-5.32,4.15-5.27,2.68-10.25,5.81-15.03,9.27-2.86,2.07-5.32,4.52-7.47,7.31-1.77,2.3-2.58,4.83-1.6,7.7.55,1.62.2,2.83-1.09,4.02-1.15,1.06-2.01,2.41-3.7,2.76-1.89.39-2.91.11-3.78-1.59-1.88-3.69-2.19-7.46-.02-11.18,3.21-5.5,7.67-9.74,12.96-13.25,5.1-3.39,10.6-6.02,15.96-8.92,2.02-1.09,3.84-2.38,5.19-4.27,1.06-1.49,1.03-1.81-.35-3.1-2.96-2.77-3.89-6.66-2.14-10.29.72-1.49,1.98-2.76,3.12-4.01,1.15-1.27,2.48-2.36,3.67-3.59,1.34-1.38,2.1-3.02,1.89-5.02-.13-1.22.02-2.51-.3-3.68-.93-3.45-.89-6.93-.59-10.42.36-4.18,1.68-8.04,4.5-11.26.47-.53,1.08-.95,1.62-1.41.13.13.27.25.4.38Z"/>
      <path class="cls-1" d="m189.47,114.75c-2.38,6.48-7.37,10.34-13.2,13.91.07,2.65.05,5.59.46,8.49.37,2.57.87,5.14,1.53,7.65.5,1.91,1.31,3.74,2.04,5.59,2.71,6.84,6.92,12.59,12.74,17.1,1.07.83,2.3,1.52,3.56,2.01,2.69,1.06,5.37.3,7.19-1.99,1.37-1.72,2.6-3.53,3.89-5.31.16-.22.35-.45.42-.7,1.24-4.12,3.01-8.1,2.98-12.53-.02-2.05.24-4.11.43-6.16.06-.63.3-1.25.46-1.88.14,0,.28-.01.41-.02.19.4.48.78.54,1.19.78,5.1,1.17,10.2.16,15.33-.25,1.27-.2,2.59-.4,3.87-.44,2.79-1.95,5.09-3.57,7.32-1.38,1.9-2.87,3.58-4.96,4.81-2.99,1.76-6.01,1.81-9.1.69-2.19-.8-4.14-2.06-5.91-3.66-3.45-3.11-6.45-6.58-8.67-10.63-2.68-4.89-4.63-10.06-5.5-15.63-.81-5.2-.24-10.4-.37-15.6-.07-2.93,1.16-4.64,3.44-6.21,2.82-1.94,5.5-4.15,7.07-7.34.6-1.21.97-2.53,1.43-3.81.14-.39.17-.81.3-1.2.53-1.57,1.72-1.96,3.02-.95.7.54,1.34,1.18,1.93,1.85,1.75,1.98,4.03,2.85,6.55,3.03,4.02.29,7.74,1.75,11.55,2.83,3.37.95,5.95,4.67,5.94,8.1,0,.27.08.61-.05.81-.23.36-.55.77-.92.89-.21.07-.75-.34-.87-.64-.25-.62-.36-1.32-.47-1.99-.43-2.55-1.97-4.23-4.33-5.03-1.87-.63-3.82-1.02-5.86-.72-2.89.42-5.74.09-8.57-.59-1.56-.38-3-.94-4.16-2.11-.28-.28-.64-.47-1.11-.8Z"/>
      <path class="cls-1" d="m344.44,409.27c-.1,1.11-.19,2.22-.31,3.33-.36,3.48-.71,6.95-1.1,10.42-.95,8.59-2.19,17.13-5.22,25.3-2,5.39-3.89,10.82-5.97,16.18-1.46,3.76-3.21,7.4-5.27,10.9-1.52,2.59-2.78,5.35-3.99,8.11-1.25,2.84-2.77,5.5-4.64,7.98-1.07,1.42-2.02,2.94-3.06,4.39-.98,1.36-2.14,1.73-3.35,1.14-1.29-.62-1.53-1.77-1.2-3.48.85-4.36,3.37-7.9,5.6-11.57,2.11-3.46,4.07-6.97,5.64-10.72,1.69-4.04,3.65-7.97,5.25-12.05,1.55-3.95,2.75-8.03,4.17-12.03,1.03-2.9,2.05-5.82,3.3-8.63,1.83-4.09,3.14-8.32,4.12-12.68.86-3.81,1.86-7.59,2.92-11.35.28-1.02.98-1.91,1.47-2.88.41-.81.8-1.64,1.2-2.46.14.03.27.06.41.08Z"/>
      <path class="cls-1" d="m246.93,176.98c-1.54,2.19-1.66,2.2-3.7,1.15-.65-.34-1.39-.56-2.11-.72-4.95-1.07-8.55-5.28-8.62-10.32-.02-1.69.18-3.43.56-5.08.74-3.27,1.72-6.49,2.52-9.75.82-3.3.41-6.29-1.86-9.07-1.62-1.99-3.26-3.83-5.46-5.2-2.59-1.62-4.34-3.86-4.92-7.01-.53-2.9-1.29-5.76-.38-8.71.06-.19.04-.42-.01-.61-.75-2.41-1.2-4.94-2.64-7.09-.23-.34-.48-.69-.8-.93-4.89-3.66-10.03-6.72-16.44-6.67-.7,0-1.77.22-1.85-.79-.09-1.14,1.07-1.09,1.83-1.15,4.22-.35,8.18.71,11.93,2.51,2.15,1.03,4.26,2.26,6.17,3.68,1.28.95,2.52,2.25,3.17,3.67,1.3,2.84,2.61,5.73,2.5,9.03-.07,2.35.58,4.66,1.59,6.75.56,1.17,1.55,2.37,2.67,2.99,3.57,1.99,5.85,5.13,8.03,8.38.67,1,1.19,2.2,1.45,3.37.91,4.18,1.32,8.4.54,12.66-.36,1.97-.94,3.87-2.17,5.5-1.41,1.86-1.39,3.69-.26,5.74,1.19,2.16,2.66,3.93,4.85,5.15,1.22.68,2.27,1.68,3.39,2.52Z"/>
      <path class="cls-1" d="m280.42,141.87c1.24.36,2.21.65,3.18.92.99.28,1.99.51,2.97.82,5.31,1.66,7.35,6.36,7.53,10.68.05,1.09-.49,2.25-.93,3.31-.81,1.97-.91,2,.59,3.33,1.87,1.65,2.93,3.7,3.73,6.03.85,2.49.14,4.72-.67,6.96-.36.98-1.16,1.64-2.2,2.03-1.74.64-3.42,1.32-5.37.79-1.16-.32-1.35-.04-1.56,1.21-.49,2.94-2.19,4.12-5.24,3.7-.74-.1-1.51.04-2.25-.05-.59-.07-1.23-.2-1.71-.52-.69-.47-.58-1.26.16-1.64.3-.15.65-.22.98-.29,1.79-.38,2.83-1.31,3.08-3.28.37-2.97,1.75-4.04,4.72-3.84,1.4.09,2.65.01,3.35-1.36.77-1.51,1.19-3.1.37-4.72-.4-.79-.94-1.52-1.5-2.21-1.73-2.15-2.35-5.74-.05-8.1.74-.76.89-1.69.78-2.67-.48-4.11-2.29-6.07-6.78-7.55-1.86-.61-3.59-1.34-5.03-2.67-.4-.37-.8-.78-1.06-1.25-.42-.77-.98-1.62.45-2.1.3-.1.53-.76.59-1.19.69-4.8,3-8.94,5.32-13.06.66-1.18,1.6-2.23,2.56-3.2,1.13-1.14,2.91-1.06,4.03.01,1,.95.92,2.35-.2,3.66-.18.21-.35.43-.56.6-3.15,2.5-5.01,5.98-6.91,9.37-1.05,1.86-1.55,4.03-2.37,6.27Z"/>
      <path class="cls-1" d="m269.66,184.38c-.95.02-1.91.14-2.85.05-1.36-.13-2.71-.5-4.07-.59-2.59-.17-4.74-1.33-6.66-2.93-4.83-4.02-7.93-9.06-8.62-15.38-.22-2.03-.06-4.11.06-6.16.05-.76.5-1.49,1.13-2.16,0,1.25.04,2.5,0,3.75-.09,2.51.35,4.83,1.52,7.13,2.35,4.62,5.65,8.21,10.23,10.62,1.9,1,4.05,1.08,6.01.82,1.41-.19,2.73-1.43,3.98-2.35,4.21-3.07,5.32-7.67,5.82-12.45.38-3.69.31-7.37-1.34-10.88-.83-1.75.19-3.01,2.13-2.82.71.07,1.46.4,2.04.81,1.5,1.07,2.44,2.59,2.89,4.37.69,2.69.92,5.5.35,8.17-1.15,5.46-2.9,10.79-6.74,15.03-1.72,1.9-3.93,3.36-5.92,5.02l.06-.05Z"/>
      <path class="cls-1" d="m177.62,74.75c-.37,1.07-.54,2.13-1.07,2.97-1.04,1.68-2.17,3.32-3.47,4.81-1.25,1.44-2.8,2.62-4.13,4.01-2.59,2.71-5.72,4.43-9.28,5.48-1.17.35-2.3.86-3.43,1.35-1.64.72-3.29,1.37-5.13,1.34-1.48-.02-2.64-.64-3.54-1.79-.97-1.25-.91-2.73.43-3.58,1-.64,2.23-1.03,3.42-1.22,3.73-.6,7.5-1.09,10.93-2.72,2.59-1.23,5.11-2.66,7.51-4.23,2.8-1.83,4.53-4.5,5.4-7.76.68-2.54,1.83-2.97,3.97-1.5,4.39,3.02,9.43,3.94,14.57,4.5,1.09.12,2.2-.02,3.29.08,4.01.37,7.57-.9,10.94-2.91.41-.24.82-.52,1.27-.67.81-.25,1.49-.02,1.93.75.41.69.24,1.32-.25,1.89-.18.2-.4.38-.64.51-3.65,2.12-7.4,3.78-11.8,3.71-4.34-.07-8.61-.3-12.82-1.48-2.4-.67-4.7-1.48-6.78-2.88-.38-.26-.83-.42-1.34-.67Z"/>
      <path class="cls-1" d="m285.52,117.95c-.75.73-1.43,1.58-2.28,2.18-1.82,1.29-3.84,2.11-6.12,2.15-2.39.04-4.81.36-7.18.13-5.45-.52-9.4-3.44-11.96-8.08-1.29,1.95-2.38,4.21-4.02,5.95-3.49,3.72-7.29,7.09-12.89,7.15-2.63.02-4.14-1.58-3.76-4.15.17-1.16,1.27-2.02,2.88-2.22,1.09-.14,2.19-.15,3.27-.35,5.8-1.12,10.44-3.98,13.41-9.22.74-1.3,1.25-2.73,1.99-4.03.26-.46.84-.95,1.33-1.01.34-.04.93.55,1.12.99,1.53,3.57,4.21,6.21,6.98,8.79,1.62,1.51,3.5,2.19,5.75,2.34,3.49.23,6.79-.86,10.2-1.07.33-.02.66-.03.98-.04l.31.5Z"/>
      <path class="cls-1" d="m172.56,109.84c-.38-.51-.62-1-1-1.33-1.56-1.35-1.9-3.08-.57-4.64.81-.96,1.89-1.86,3.04-2.33,5.93-2.41,12.1-3.43,18.51-2.94,2.8.21,5.61.32,8.4.55,1.29.1,2.58.31,3.85.58.79.17,1.36.7,1.24,1.62-.1.8-.9,1.27-1.92,1.01-4.47-1.13-8.84-.24-13.24.46-3.14.5-6.18,1.24-9.05,2.6-1.3.61-2.62,1.22-3.81,2.01-1.67,1.12-3.41,1.99-5.45,2.4Z"/>
      <path class="cls-1" d="m209.33,97.49c.37-3.11.88-6.63,2.22-9.97.84-2.1,1.62-4.22,2.54-6.28.44-.98,1.08-1.9,1.78-2.72.28-.34,1.04-.59,1.41-.44.31.12.55.88.52,1.34-.06,1.02-.44,2.02-.44,3.03,0,4.17.06,8.34.14,12.51.04,2.05.28,4.11.23,6.16-.07,2.63-2.4,3.91-4.81,2.79-2.2-1.02-3.71-3.53-3.58-6.42Z"/>
      <path class="cls-1" d="m272.04,139.18c-.53.03-1.07.13-1.59.07-2.03-.22-3.49,1.03-5.04,1.97-.29.18-.48,1.09-.29,1.41.47.8,1.07,1.66,1.84,2.11,2.39,1.38,4.95,1.92,7.68.92.93-.34,1.89-.57,3.15-.95-.07.82.02,1.31-.17,1.67-.28.53-.68,1.04-1.14,1.42-3.9,3.21-12.13,2.85-15.12-2.24-.41-.7-.84-1.46-.98-2.24-.4-2.23-.05-4.55,3.09-5.03,2.07-.31,4.21-.33,6.31-.3.79.01,1.58.53,2.37.81-.03.12-.07.25-.1.37Z"/>
      <path class="cls-1" d="m165.69,112.37c-.33-.16-.59-.2-.68-.34-1.26-1.98-3.06-3.48-4.59-5.2-3.11-3.49-6.74-5.97-11.46-6.65-1.28-.18-1.98-.98-1.93-1.99.05-1.1.98-1.91,2.3-1.82.88.06,1.77.26,2.6.55,4.23,1.48,7.83,3.9,10.65,7.42,1.33,1.65,2.85,3.16,3.5,5.27.3.96.48,1.85-.38,2.77Z"/>
      <path class="cls-1" d="m257.88,141.87c.77,1.8.88,3.62,0,5.46-2.17,4.55-7.82,7.01-12.6,5.43-.76-.25-1.52-.65-2.15-1.14-.91-.7-1.05-1.98-.49-2.97.52-.92,1.52-1.29,2.66-.97.32.09.63.25.93.42,1.28.69,2.63.78,3.98.34,1.36-.44,2.72-.92,4.01-1.53,1.44-.68,2.22-1.96,2.64-3.48.16-.56.34-1.12.51-1.68.17.04.35.08.52.11Z"/>
      <path class="cls-1" d="m234.86,128.92c1.87-.1,3.54.54,5.02,1.69,2.49,1.94,4.88,4.01,6.65,6.65,1.06,1.58,1.88,3.33,2.71,5.04.38.79-.04,1.48-.75,1.91-.66.41-1.4.37-1.88-.21-.51-.62-.99-1.35-1.19-2.11-1.13-4.16-3.81-7.2-6.97-9.91-.61-.53-1.4-.84-2.1-1.28-.6-.38-1.19-.79-1.78-1.19.09-.2.18-.4.27-.6Z"/>
    </g>
  </g>
</svg>