<?xml version="1.0" encoding="UTF-8"?>
<svg id="Camada_2" data-name="Camada 2" xmlns="http://www.w3.org/2000/svg" viewBox="0 0 820.22 351.85">
  <defs>
    <style>
      .cls-1 {
        fill: #936e38;
      }

      .cls-1, .cls-2, .cls-3, .cls-4, .cls-5, .cls-6, .cls-7, .cls-8, .cls-9, .cls-10, .cls-11, .cls-12, .cls-13 {
        stroke-width: 0px;
      }

      .cls-2 {
        fill: #a0af71;
      }

      .cls-3 {
        fill: #994e44;
      }

      .cls-5 {
        fill: #b78da4;
      }

      .cls-6 {
        fill: #d8cabd;
      }

      .cls-7 {
        fill: #fff;
      }

      .cls-8 {
        fill: #e6dec7;
      }

      .cls-9 {
        fill: #caac43;
      }

      .cls-10 {
        fill: #59ada5;
      }

      .cls-11 {
        fill: #f2d249;
      }

      .cls-12 {
        fill: #b7a495;
      }

      .cls-13 {
        fill: #647caf;
      }
    </style>
  </defs>
  <g id="Camada_2-2" data-name="Camada 2">
    <g>
      <g>
        <path class="cls-8" d="m80.87,314.36c-.23-2.08-.46-4.15-.68-6.23-.13-1.25-.32-2.5-.32-3.75-.02-2.8-.03-5.61.12-8.41.11-2.17.46-4.33.69-6.49.09-.87.15-1.75.21-2.63.17-2.34.25-4.69.55-7.01.29-2.28.41-4.57.99-6.83.54-2.1.74-4.28,1.16-6.42.27-1.35.67-2.68,1-4.03.23-.93.43-1.87.66-2.8.34-1.34.69-2.67,1.04-4,.03-.12.01-.27.08-.37,1.01-1.41,1.17-3.11,1.68-4.69.06-.2.22-.39.23-.58.13-1.82,1.09-3.12,2.47-4.24.48-.39.72-1.06,1.18-1.47,1.27-1.1,2.57-2.18,3.91-3.19,1.11-.83,2.27-1.6,3.46-2.31,1.05-.63,2.19-1.12,3.27-1.69,1.16-.61,2.33-1.21,3.46-1.87,2.59-1.53,5.15-3.09,7.72-4.64,2.32-1.4,4.59-2.88,6.95-4.2,2.07-1.15,4.21-2.17,6.36-3.18,2.41-1.14,4.94-2.06,7.27-3.34,1.49-.82,3.11-1.1,4.63-1.73.31-.13.67-.22,1-.2,1.53.08,3.06.15,4.57.35.92.12,1.82.42,2.71.7.52.16,1.01.43,1.5.68,2.03,1.05,4.05,2.1,6.07,3.18.6.32,1.2.65,1.72,1.07,1.34,1.07,2.87,1.77,4.47,2.38.82.32,1.61.74,2.4,1.14.42.21.81.45,1.22.67,1.52.8,2.48,2.01,2.85,3.68.24,1.06.56,2.11.75,3.18.14.82.17,1.67.19,2.51.04,2.1.03,4.2.08,6.3.05,2.22.13,4.44.2,6.66.04,1.13.12,2.27.12,3.4,0,3.07-.09,6.13-.07,9.2.02,2.22.15,4.45.25,6.67.01.33.11.66.19.98.55,2.12.95,4.26,1.13,6.44.09,1.08,0,2.18,0,3.28,0,1.89-.06,3.78.02,5.67.04,1.08.28,2.16.46,3.24.42,2.64,1.01,5.26.85,7.98-.12,2.17.09,4.35.05,6.53-.05,3.5.48,6.94.8,10.41.24,2.63.52,5.27.62,7.91.06,1.58-.14,3.18-.28,4.77-.12,1.33-.34,2.66-.53,3.99-.06.41-.13.83-.26,1.23-.26.84-.56,1.67-.86,2.5-.35.98-.93,1.79-1.75,2.44-.63.5-1.19,1.1-1.87,1.51-1.59.95-2.92,2.29-4.83,2.76-1.18.29-2.25.98-3.42,1.36-1.68.55-3.3,1.28-5.11,1.51-2.1.27-4.14.91-6.24,1.21-1.87.26-3.71.74-5.68.47-2.81-.39-5.65-.52-8.51-.11-1.33.19-2.72.07-4.08.03-1.61-.05-3.22-.15-4.83-.27-1.06-.08-2.11-.25-3.16-.39-1.77-.24-3.54-.43-5.29-.74-.82-.15-1.59-.59-2.41-.79-1.28-.31-2.58-.55-3.88-.75-1.3-.21-2.61-.34-3.91-.51-.21-.03-.45,0-.63-.08-1.84-.81-3.83-1.23-5.54-2.41-1.62-1.12-3.23-2.27-5.07-3.1-1.41-.63-2.62-1.68-3.92-2.55-.31-.21-.62-.43-.91-.68-.52-.43-1.07-.84-1.52-1.33-1.08-1.18-2.1-2.41-3.15-3.62-.17-.19-.38-.36-.48-.58-.7-1.57-1.72-2.95-2.36-4.58-.55-1.42-.79-2.9-1.36-4.29-.1-.23-.19-.48-.21-.73-.12-1.38-.22-2.76-.33-4.13l.18-.02Z"/>
        <path class="cls-8" d="m91.17,144.71c-.61.65-.78,1.49-1.01,2.26-.76,2.6-1.12,5.24-1.09,7.97.06,5.39-.06,10.78-.1,16.16,0,.04,0,.09,0,.13.6,3.49-.52,6.82-1.05,10.19-.65,4.09-2.34,7.9-3.66,11.81-.12.35-.32.72-.6.95-1.67,1.34-2.52,3.26-3.62,5-1.31,2.08-3.02,3.7-5.3,4.75-1.38.63-2.66,1.5-3.98,2.26-1.59.92-3.28,1.59-5.09,1.95-1.08.22-2.15.54-3.23.77-.58.12-.9.39-.97.99-.04.33-.19.65-.29.97-.52,1.6.22,2.88,1.89,3.28.33.08.66.2,1,.21,1.84.1,2.77,1.34,3.52,2.76.54,1.02.44,2.09-.29,2.98-.83,1.01-1.69,2.01-2.69,2.84-2.18,1.82-4.6,3.33-7.11,4.68-.63.34-1.24.76-1.77,1.24-1.92,1.73-4.12,3.01-6.6,3.71-1.73.48-3.52.4-5.25-.22-1.44-.51-2.61-1.34-3.47-2.62-.52-.78-.81-1.58-.68-2.49.11-.74.27-1.48.46-2.21.11-.4.1-.69-.19-1.03-1.02-1.21-1.7-2.6-2.05-4.14-.13-.56-.19-1.14-.18-1.72.06-2.73-.07-5.49.31-8.18.38-2.64,1.5-5.1,2.98-7.42,2.44-3.82,5.43-7.19,8.6-10.39,1.9-1.92,4.05-3.58,6.06-5.39,1.98-1.77,4-3.52,5.88-5.4.71-.71,1.11-1.76,1.57-2.69,2.38-4.88,4.78-9.75,7.07-14.68,1.25-2.7,2.27-5.51,3.42-8.26.86-2.05,1.73-4.1,2.68-6.11.25-.54.82-.93,1.24-1.39.3-.33.7-.62.89-1,2.29-4.72,5.16-9.08,8.59-13.06,2.48-2.88,5.1-5.65,7.75-8.38,2.22-2.3,4.86-4.06,7.74-5.49,1.37-.67,2.62-1.57,3.92-2.37.11-.06.23-.15.28-.25.62-1.23,1.79-1.55,2.99-1.94,3.27-1.08,6.5-2.29,9.77-3.37,4.11-1.35,8.34-1.65,12.61-1.09,1.81.24,3.6.64,5.36,1.11,2.68.72,3.31,3.4,1.26,5.26-2.51,2.28-5.05,4.52-7.62,6.72-.48.41-1.19.71-1.83.77-.72.07-1.32.3-1.88.68-6.03,4-12.62,6.78-19.54,8.87-.36.11-.69.27-1.25.5.37.24.56.47.79.5,1.34.18,2.51.72,3.68,1.35,1.8.96,3.79,1.27,5.81,1.27,1.57,0,3.15-.17,4.72-.27,3.05-.19,5.65-1.53,8.07-3.23,1.56-1.1,3.03-2.31,4.5-3.52,1.19-.99,2.39-1.06,3.79-.43,1.6.72,2.33,1.8,2.48,3.59.38,4.53-.06,8.98-.99,13.4-.38,1.81-1.27,3.46-2.25,5.04-1.41,2.26-3.02,4.36-5.05,6.12-1.52,1.32-3.23,2.3-5.05,3.13-1.7.77-3.37,1.6-5.08,2.35-2.34,1.02-4.76,1.82-7.32,1.99-1.64.11-3.31.12-4.95-.02-.85-.07-1.76-.44-2.48-.9-1.66-1.07-3.37-2.08-4.87-3.41-1.92-1.7-3.56-3.63-4.94-5.74-1.63-2.5-3.13-5.09-4.58-7.69-.68-1.23-1.12-2.59-1.72-3.99Z"/>
        <path class="cls-13" d="m83.81,55.37c1.05.98,2.12,1.94,3.14,2.94,1.11,1.09,2.25,2.17,3.24,3.37,1.12,1.36,2.12,2.83,3.09,4.3.6.91,1.05,1.92,1.57,2.88.98,1.81,1.84,3.68,2.49,5.64.15.43.26.9.26,1.36-.03,1.43-.21,2.86-.16,4.28.07,1.63-.38,3.16-.66,4.72-.2,1.11-.5,2.21-.77,3.31-.19.77-.35,1.56-.62,2.31-.67,1.83-1.74,3.44-3,4.93-.08.1-.19.17-.29.25-1.91,1.46-6.04,1.72-8.17.58-1.31-.69-2.68-1.27-4.01-1.91-1.18-.57-2.36-1.15-3.54-1.74-2.08-1.04-4.17-2.07-6.23-3.16-1.31-.69-2.58-1.46-3.86-2.2-.77-.45-1.53-.92-2.3-1.36-2.24-1.29-4.48-2.57-6.72-3.85-1.28-.74-2.58-1.45-3.83-2.23-.68-.42-1.27-.99-1.95-1.41-2.2-1.36-4.46-2.6-6.87-3.57-1.6-.64-2.57-1.89-3.05-3.52-.17-.56-.36-1.12-.62-1.63-1.02-2-.87-3.89.4-5.72,1.7-2.45,3.39-4.92,5.09-7.38,1.32-1.9,2.59-3.83,3.98-5.69.83-1.11,1.83-2.09,2.76-3.13.87-.97,1.71-1.97,2.63-2.91.95-.96,1.95-1.87,2.96-2.77,1.2-1.06,2.42-2.1,3.66-3.12,1.08-.88,2.2-1.71,3.31-2.56.74-.57,1.51-1.09,2.22-1.69,2.21-1.87,4.73-3.26,7.18-4.76,1.95-1.19,3.84-2.47,5.8-3.64,1.89-1.12,3.84-2.14,5.76-3.23,1.1-.63,2.17-1.32,3.28-1.94,1.11-.61,2.25-1.19,3.39-1.73,1.53-.72,3.06-1.45,4.63-2.09,1.33-.54,2.7-1,4.07-1.44,2.14-.69,4.28-1.38,6.43-2,1.46-.43,2.95-.76,4.44-1.11.91-.21,1.83-.38,2.75-.54,1.38-.24,2.75-.5,4.14-.65,1.39-.15,2.79-.2,4.19-.27,1.48-.07,2.97-.16,4.45-.16,1.4,0,2.81,0,4.2.18,1.85.23,3.68.61,5.5.97,3.39.67,5.22,4.39,3.64,7.48-.35.68-.47,1.25-.3,2.01.32,1.46-.06,2.81-.87,4.09-.65,1.02-1.08,2.17-1.66,3.24-.76,1.4-1.55,2.79-2.36,4.17-.27.47-.66.87-.95,1.33-.66,1.04-3.57,3.56-4.72,3.95-1.08.37-2.19.66-3.3.95-1.68.43-3.37.84-5.06,1.24-.33.08-.67.14-1.01.14-2.5.03-5,.16-7.49-.24-1.72-.28-3.45-.43-5.18-.61-1.16-.12-2.27.03-3.32.65-.83.49-1.76.84-2.63,1.26-2.08,1.01-3.88,2.39-5.62,3.89-1.17,1.01-2.54,1.81-3.85,2.66-1.81,1.18-3.63,2.32-5.46,3.47-1.04.65-2.08,1.32-3.16,1.89-.58.31-.93.7-1.05,1.5Z"/>
        <path class="cls-8" d="m209.64,188.76c.19,2.96.45,5.93.57,8.9.12,3.14.13,6.28.17,9.42.03,2.17.08,4.35.05,6.52-.02,1.42-.18,2.83-.28,4.25-.08,1.08-.15,2.17-.22,3.25-.09,1.45-.2,2.9-.27,4.35-.05,1.25-.03,2.5-.08,3.75-.05,1.21-.11,2.43-.26,3.63-.16,1.32-.46,2.63-.65,3.94-.2,1.32-.35,2.65-.52,3.98-.11.83-.2,1.66-.35,2.48-.26,1.4-.58,2.78-.84,4.18-.24,1.27-.43,2.55-.69,3.82-.25,1.23-.56,2.45-.86,3.67-.38,1.54-.74,3.08-1.17,4.61-.37,1.33-.82,2.63-1.25,3.94-.33,1.03-.69,2.06-1.02,3.09-.91,2.83-1.8,5.66-2.73,8.48-.62,1.87-1.23,3.74-1.94,5.58-.64,1.64-1.57,3.18-2.07,4.86-.57,1.92-1.7,3.55-2.52,5.34-1.26,2.76-4.75,3.8-7.38,2.36-.46-.25-.86-.67-1.2-1.08-1.4-1.69-2.31-3.51-2.33-5.83-.02-3.01-.01-6.04-.48-9.05-.23-1.48-.11-3.01-.15-4.52-.03-1.25-.08-2.51-.09-3.76-.01-1.05-.01-2.1.03-3.14.08-1.97.25-3.94.29-5.91.05-2.27.02-4.53-.01-6.8-.03-2.31-.11-4.61-.15-6.92-.02-1.3-.03-2.6,0-3.9.02-1.09.07-2.18.14-3.27.15-2.14.36-4.27.48-6.4.12-2.18.16-4.36.26-6.53.05-1.01.14-2.01.22-3.02.23-3.01.49-6.02.67-9.04.13-2.18.12-4.36.21-6.54.09-2.05.25-4.11.34-6.16.06-1.38.04-2.76.07-4.15.02-1.05,0-2.1.07-3.14.21-3.14.45-6.28.67-9.42.16-2.22.3-4.44.48-6.65.17-2.13.4-4.26.58-6.39.18-2.22.29-4.44.47-6.65.18-2.26.37-4.52.63-6.77.25-2.12.48-4.26.94-6.34.45-2.05,1.56-3.71,3.78-4.34,2.68-.76,5.75.74,6.6,3.36.36,1.1.79,2.07,1.58,2.94.64.7,1.07,1.6,1.55,2.43.69,1.21,1.33,2.44,1.99,3.65.34.63.83,1.21,1.01,1.87.41,1.45,1.21,2.75,1.41,4.28.17,1.32.69,2.58,1.01,3.89.33,1.38.61,2.78.91,4.16.19.86.41,1.71.59,2.57.27,1.27.54,2.53.76,3.81.26,1.52.49,3.06.68,4.59.16,1.25.24,2.5.36,3.75-.01,0-.03,0-.04,0Z"/>
        <path class="cls-2" d="m15.01,131.18c.51-2.98,1-5.97,1.55-8.94,1.18-6.31,3.37-12.33,5.32-18.42,1.05-3.29,2.15-6.56,3.33-9.8.9-2.46,2.14-4.76,4-6.69.46-.48.76-1.1,1.1-1.68.88-1.49,1.67-3.03,2.62-4.47,1.09-1.65,3.08-2.03,4.82-1.07.26.14.52.29.8.39,2.88,1.03,5.79,1.99,8.64,3.09,2.85,1.11,5.62,2.42,8.46,3.54,6.45,2.54,12.6,5.75,18.92,8.57,3.22,1.44,6.43,2.88,9.62,4.36,1.54.72,3.04,1.5,4.52,2.34.98.55,1.34,1.5,1.21,2.6-.13,1.06-.73,1.79-1.72,2.17-.83.32-1.68.61-2.54.84-2.46.67-4.85,1.45-6.92,3-.91.68-1.97,1.18-2.98,1.71-1.72.9-2.84,2.32-3.36,4.11-.58,2.02-1,4.08-1.41,6.14-.28,1.43.03,2.84.28,4.25.16.91.16,1.84.28,2.76.12.91.31,1.82.46,2.73.08.49.17.99.22,1.49.16,1.64-.51,2.74-1.96,3.64-1.28.79-2.53,1.79-3.43,2.97-.96,1.25-1.55,2.79-2.2,4.24-.48,1.08-.88,2.17-1.67,3.1-.96,1.13-1.97,1.5-3.39,1.03-1.41-.46-2.8-1.02-4.23-1.42-1.67-.47-3.39-.8-5.08-1.2-1.15-.28-2.35-.46-3.44-.89-3.26-1.29-6.68-1.98-10.06-2.84-2.36-.6-4.63-1.39-6.88-2.31-2.43-.99-4.96-1.78-7.45-2.64-1.57-.53-3.15-1.01-4.73-1.53-1.41-.47-2.5-2.09-2.55-3.76-.01-.46,0-.93,0-1.39-.05,0-.09-.02-.14-.03Z"/>
        <path class="cls-1" d="m187.02,99.79c-.14-2.37-.1-4.24-.38-6.05-.35-2.22-1.25-4.25-2.98-5.84-1.05-.98-2.13-1.96-3-3.09-.68-.89-1.17-1.97-1.49-3.04-.2-.66-.09-1.54.19-2.19.59-1.39,1.36-2.7,2.09-4.03.38-.7.84-1.36,1.24-2.06.62-1.08.5-2.02-.35-2.99-.14-.16-.27-.33-.41-.48-1.19-1.32-2.6-1.91-4.44-1.55-1.67.33-3.37.46-5.06.65-2.02.22-4.36-.81-5.59-2.41-.23-.3-.5-.57-.74-.87-.71-.88-1.01-1.93-.68-2.97.51-1.59,1.21-3.13,1.85-4.68.18-.43.48-.8.64-1.23.85-2.31,2.08-4.39,3.5-6.4,1.18-1.69,2.28-3.45,3.27-5.26,1.18-2.16,2.75-4.04,4.31-5.92.46-.55.96-1.07,1.4-1.64.68-.88,1.48-1.61,2.44-2.19.42-.25.74-.68,1.08-1.06,1.05-1.2,2.32-1.63,3.89-1.27.49.11,1,.16,1.5.17,1.08.02,2.14.3,2.7,1.19.76,1.2,1.96,1.84,2.97,2.71,2.64,2.25,5.31,4.46,8.02,6.64,3.11,2.5,5.35,5.72,7.66,8.89,1.96,2.69,3.85,5.43,5.78,8.15,2.54,3.58,5.08,7.15,7.62,10.72.76,1.06,1.59,2.08,2.27,3.19.96,1.58,1.85,3.21,2.71,4.84,1.92,3.65,3.8,7.32,5.69,10.99.42.82.57,1.67.29,2.57-.31,1-.43,2.06-1.15,2.92-.18.21-.16.63-.13.94.19,2.11-.57,3.33-2.55,4.14-2.63,1.07-5.24,2.21-7.88,3.24-1.86.73-3.76,1.32-5.64,2.01-1.55.57-3.07,1.24-4.63,1.77-3.06,1.03-6.13,1.99-9.21,2.96-1.66.52-3.32,1.05-5,1.5-2.27.6-4.58.94-6.93.75-.45-.04-.97-.14-1.33-.4-1.23-.88-2.36-1.84-3.17-3.2-1.14-1.91-.91-3.83-.63-5.85.21-1.57.19-3.18.25-4.25Z"/>
        <path class="cls-10" d="m201.18,312.03c-.07.54-.11.96-.18,1.37-.32,1.84-1.32,3.21-3.05,3.94-1.98.84-3.63,2.16-5.42,3.28-.71.45-1.49.81-2.28,1.09-.96.35-1.67.71-1.89,1.9-.37,1.98-1.73,3.26-3.69,3.8-1.96.54-3.73.08-5.18-1.34-.63-.62-1.21-1.32-1.67-2.07-1.21-1.94-1.16-3.93.13-5.82.39-.58.62-1.14.73-1.83.11-.69.36-1.4.72-2,1.46-2.43,5.11-3.99,7.92-3.48.33.06.76-.01,1.06-.17.67-.36,1.26-.86,1.93-1.22,1.31-.69,2.61-1.43,3.99-1.95.8-.3,1.75-.21,2.74-.3.03-.25,0-.63.12-.97.3-.87.57-1.76,1.01-2.56.45-.8,1.07-1.51,1.65-2.23,1.2-1.52,2.44-3.01,3.63-4.55,1.75-2.27,3.46-4.55,4.38-7.33.68-2.07,1.63-4.05,2.41-6.09.81-2.11,1.6-4.24,2.33-6.38.42-1.23.68-2.51,1.05-3.76.46-1.53.96-3.04,1.45-4.55.4-1.24.81-2.47,1.23-3.7.27-.79.6-1.57.84-2.37.64-2.09,1.33-4.16,1.86-6.28.48-1.91.82-3.86,1.14-5.8.38-2.32.67-4.65,1.02-6.97.33-2.2.67-4.39,1.03-6.59.17-1.04.33-2.07.57-3.09.3-1.28.98-2.35,2.09-3.07,1.42-.91,2.95-1.43,4.7-1.35,1.31.06,2.63-.09,3.94-.15.98-.04,1.96-.04,2.93-.14,1.64-.18,3.28-.42,4.92-.65,2.06-.28,3.83.27,5.13,1.9,1.33,1.66,1.51,3.52.69,5.47-.1.23-.27.46-.29.7-.32,2.88-1.72,5.43-2.59,8.13-.7,2.19-1.52,4.36-2.39,6.49-.86,2.1-1.85,4.14-2.78,6.21-.89,2-1.76,4-2.65,5.99-.92,2.07-1.86,4.14-2.78,6.21-.53,1.19-1.04,2.39-1.6,3.57-.43.91-.93,1.79-1.4,2.68-.99,1.9-1.97,3.81-2.98,5.7-1.29,2.41-2.6,4.8-3.91,7.2-.7,1.29-1.39,2.59-2.15,3.84-.35.57-.88,1.02-1.31,1.53-.62.74-1.31,1.44-1.8,2.26-1.22,2.02-2.58,3.95-4.25,5.62-.47.47-1.11.77-1.67,1.14-.55.37-1.23.65-1.64,1.14-1.31,1.54-2.63,3.09-3.73,4.78-1.32,2.01-3.04,2.99-5.45,2.81-.16-.01-.33,0-.6,0Z"/>
        <path class="cls-3" d="m56.04,268.13c-.26-.34-.63-.79-.96-1.27-.47-.69-.96-1.38-1.33-2.12-.9-1.81-1.6-3.72-2.62-5.45-.9-1.52-1.29-3.19-1.89-4.8-.52-1.37-.88-2.8-1.29-4.21-.54-1.84-.68-3.76-.41-5.61.43-2.89,3.38-4.71,6.33-4.07.74.16,1.39.14,2.12-.02,1.86-.42,3.55-.05,5,1.24.25.22.52.5.82.57,2.55.58,4.54,2.27,6.86,3.29,1.2.53,2.43,1,3.6,1.58.83.41,1.62.9,2.37,1.43.45.31.79.76,1.18,1.15,1.74,1.71,2.17,4.13,1.03,6.27-.91,1.7-1.24,3.57-1.72,5.39-.38,1.46-.67,2.94-1,4.42-.21.94-.42,1.88-.63,2.83-.57,2.63-1.15,5.25-1.7,7.88-.63,3-1.27,6-1.85,9-.54,2.8-1,5.62-1.49,8.43-.04.2-.04.42-.02.63.26,3.6.5,7.21.8,10.81.09,1.04.28,2.08.54,3.1.6,2.31-.7,6.1-2.63,7.52-1.83,1.35-4.36,1.44-6.22.09-1.54-1.11-3.03-2.3-4.44-3.57-.97-.87-1.77-1.93-2.63-2.91-.7-.79-1.39-1.59-2.06-2.4-.92-1.1-1.86-2.18-2.71-3.33-.62-.84-1.15-1.77-1.64-2.69-.69-1.3-1.31-2.63-1.95-3.96-.15-.3-.25-.63-.42-.92-.64-1.05-.84-2.18-.78-3.39.03-.57-.07-1.16-.22-1.71-.57-1.99-.15-3.71,1.18-5.3,1.95-2.32,3.94-4.62,5.38-7.32.93-1.74,2.01-3.41,2.98-5.13.47-.84.85-1.74,1.24-2.62.39-.88.74-1.77,1.18-2.82Z"/>
        <path class="cls-13" d="m138.2,58.89c-.09-2.91.51-5.88,1.18-8.83.72-3.16,1.47-6.31,2.22-9.46.1-.41.21-.84.43-1.18,1.35-2.07,1.62-4.49,2.22-6.79.69-2.69,1.26-5.41,1.96-8.09.29-1.09.78-2.13,1.19-3.19.78-2,1.59-3.99,2.34-6,.82-2.2,2.45-3.41,4.83-3.38,1.05.02,2.09.12,3.08.66.64.34,1.47.33,2.22.49,3.15.67,6.09,1.83,8.87,3.44,2.94,1.7,5.95,3.29,8.64,5.36,1.71,1.31,3.4,2.68,4.67,4.44.83,1.15.84,2.56-.15,3.47-2.04,1.89-3.58,4.14-5.17,6.39-1.65,2.35-3.5,4.55-5.23,6.84-1.68,2.22-3.31,4.49-4.98,6.72-2.12,2.84-4.28,5.66-6.39,8.51-1.13,1.53-2.16,3.12-3.29,4.64-.65.87-1.38,1.7-2.16,2.46-1,.97-2.05,1.89-3.14,2.75-1.54,1.2-3.39,1.34-5.23,1.08-1.55-.21-3.07-.68-4.38-1.63-2.29-1.66-3.69-3.78-3.73-6.66,0-.63,0-1.26,0-2.04Z"/>
        <path class="cls-8" d="m139.97,181.09c.14-3.62.83-7.12,2.08-10.49,1.11-3,3.2-5.31,5.83-7.16,5-3.5,10.41-6.2,16.16-8.25,1.03-.37,2.13-.56,3.21-.8,1.6-.36,3.18-.88,4.85-.84.89.02,1.79-.03,2.68.07,1.76.19,3.05,1.89,2.75,3.62-.52,2.97-1.05,5.93-1.64,8.88-.79,3.94-1.69,7.86-2.46,11.81-.6,3.08-1.05,6.19-1.63,9.27-.51,2.71-1.12,5.41-1.63,8.12-.3,1.6-.42,3.24-.76,4.83-.51,2.37-1.01,4.76-2.06,6.97-.21.44-.54.91-.94,1.16-1.19.75-2.49,1.35-3.94,1.14-.95-.14-1.95-.18-2.79-.78-.25-.18-.64-.16-.97-.22-1.63-.3-3.26-.58-4.88-.91-.36-.07-.73-.25-1.04-.46-.96-.62-1.87-1.32-2.85-1.91-1.24-.74-2.1-1.81-2.92-2.95-.82-1.13-1.7-2.21-2.53-3.33-1.74-2.33-2.51-5.03-3.06-7.81-.45-2.27-.83-4.55-1.19-6.83-.16-1.03-.18-2.09-.26-3.13Z"/>
        <path class="cls-5" d="m252.91,161.8c.15,2.34.35,4.69.44,7.03.1,2.85.11,5.71.14,8.56.01,1.51-.06,3.02-.05,4.53,0,.92-.24,1.72-.77,2.49-.22.31-.34.76-.34,1.14.01,2.62-1.66,4.24-4.31,3.89-2.57-.33-5.1-.92-7.66-1.3-2.61-.38-4.91-1.61-7.35-2.45-2.24-.77-4.45-1.66-6.68-2.46-1.61-.57-2.66-1.82-2.61-3.51.1-3.28-.64-6.43-1.33-9.59-.44-2.01-.75-4.05-.99-6.09-.34-2.94-.98-5.8-2.1-8.55-.14-.35-.38-.66-.55-1-1.18-2.43.34-4.99,3.06-5.26.69-.07,1.41-.31,2.02-.64,3.33-1.8,6.84-3.18,10.41-4.45,1.16-.41,2.25-1.01,3.4-1.44,2.15-.79,4.29-1.62,6.5-2.24,1.96-.55,3.56.46,4.96,1.7.53.47.95,1.08,1.33,1.69.71,1.11,1.27,2.28,1.18,3.67-.15,2.34.39,4.61.79,6.88.43,2.45.64,4.91.5,7.4Z"/>
        <path class="cls-8" d="m182.75,126.36c0,.51-.06.78.01,1,.25.74.19,1.47.07,2.23-.35,2.32-.64,4.65-.93,6.98-.15,1.21-.24,2.42-.38,3.63-.09.79-.2,1.58-.37,2.36-.2.91-.74,1.63-1.62,1.99-1.02.42-2.06.73-3.2.7-1.18-.03-2.37.03-3.54.19-2.77.37-5.53.84-8.3,1.23-2.26.32-4.32,1.24-6.41,2.07-1.69.67-3.43,1.24-5.19,1.7-1.55.41-2.85-.32-3.89-1.39-.65-.67-.89-1.56-.61-2.47.46-1.57.72-3.19,1.57-4.65.39-.67.63-1.49.71-2.26.29-2.68.63-5.36.65-8.05.02-2.3-.32-4.61-.61-6.9-.21-1.73.29-2.79,1.9-3.57.38-.18.78-.39,1.05-.69,1.68-1.85,3.96-2.56,6.23-3.26,1.41-.44,2.87-.78,4.33-1.04,2.32-.41,4.66-.12,6.99,0,4.2.21,7.91,1.98,11.73,3.4,2.27.84,4.35,2.06,6.51,3.13,3.03,1.51,6.19,2.76,9.29,4.14,1.74.78,3.51,1.45,5.41,1.82,1.67.33,3.34.25,5.01.28.92.01,1.84-.13,2.77-.16,1.88-.07,3.3,1.14,3.39,2.86.1,1.85-1.12,3.37-2.98,3.43-3.01.1-6.05.4-9.04-.17-2.08-.4-4.13-.91-6.06-1.83-2.1-1-4.31-1.78-6.43-2.75-2.27-1.04-4.48-2.21-6.72-3.31-.37-.18-.75-.35-1.32-.6Zm-15.21,8.02c.04.07.08.14.12.21.3-.17.59-.33.89-.5-.04-.07-.08-.14-.12-.21-.3.17-.59.33-.89.5Z"/>
        <path class="cls-5" d="m222.01,125.79c-1.89-.27-3.47-.57-5.07-.71-2.79-.25-5.61-.28-8.38-.65-1.48-.2-2.99-.76-4.31-1.46-2-1.06-2.85-3.47-2.29-5.68.55-2.19,2.49-3.73,4.77-3.96,1.21-.13,2.41-.45,3.59-.76,2.26-.59,4.49-1.27,6.75-1.86,3.41-.89,6.83-1.71,10.23-2.62,1.31-.35,2.58-.83,3.85-1.3.55-.2,1.08-.48,1.57-.8,2.6-1.67,5.82-1.03,7.53,1.51.64.95,1.28,1.89,1.9,2.84.23.35.46.72.58,1.12.43,1.4.83,2.82,1.2,4.23.56,2.11,1.18,4.21,1.62,6.34.32,1.56,1.14,3.01.96,4.67-.03.3.17.64.3.94,1.2,2.83.13,5.68-2.62,7.04-1.1.54-2.16,1.17-3.24,1.75-2.31,1.24-4.64,2.45-6.95,3.7-1.86,1.01-3.68,2.08-5.55,3.09-1.3.7-2.68,1.28-3.95,2.03-1.19.69-2.47,1.11-3.75,1.55-2.52.87-5.05.17-6.47-1.87-1.42-2.04-1.19-4.67.54-6.64.91-1.04,1.78-2.13,2.67-3.2.13-.16.24-.35.34-.53.83-1.51,1.71-2.99,2.46-4.54.62-1.28,1.07-2.63,1.71-4.25Z"/>
        <path class="cls-11" d="m58.41,156.47c-.05,2.7-.3,5.33-1.49,7.85-1.42,3-2.63,6.1-4.02,9.13-1.41,3.07-3.16,5.95-5.09,8.73-.23.34-.57.65-.93.85-1.4.78-2.17,2.02-2.5,3.49-.35,1.55-1.02,2.74-2.57,3.36-.29.11-.51.42-.72.67-1.89,2.24-4.98,1.89-6.3-.71-1.12-2.22-.72-4.89.89-6.83.8-.97,1.41-2.09,2.08-3.16.14-.23.21-.58.17-.85-.31-1.99.04-3.94.31-5.89.12-.87-.03-1.67-.45-2.44-.4-.74-.76-1.51-1.18-2.24-.59-1.02-1.33-1.86-2.65-1.91-.13,0-.25-.04-.37-.08-1.76-.52-3.58-2.94-3.67-4.75-.09-1.89-.23-3.77-.41-5.66-.08-.87-.5-1.55-1.38-1.97-.84-.4-1.65-.89-2.39-1.45-.45-.34-.81-.86-1.08-1.37-.24-.46-.55-.7-1.04-.81-1.57-.36-3.13-.77-4.71-1.1-.87-.18-1.76-.31-2.64-.36-2.3-.12-3.86-1.77-3.68-3.96.17-2.08,2.01-3.4,4.24-3.22,2.34.19,4.58.8,6.86,1.33,1.88.43,3.63,1.15,5.46,1.69,2.15.64,4.39,1.03,6.57,1.58,1.27.32,2.52.74,3.77,1.13,1.75.53,3.49,1.07,5.24,1.61.69.21,1.36.49,2.05.68,2.75.73,5.48,1.57,8.27,2.1,1.94.37,3.57,1.99,3.36,4.07-.02.17,0,.34,0,.5Z"/>
        <path class="cls-3" d="m8.67,194.71c.09-1.43.2-3.02.28-4.61.16-3.35,3.08-5.62,6.42-4.98.54.1,1.08.22,1.63.3,3.22.46,5.31,3.3,4.53,6.41-.47,1.85-.3,3.67-.16,5.5.17,2.3.42,4.6.7,6.89.25,2.08.56,4.16.86,6.23.14,1,.32,1.99.47,2.98.45,3.03.87,6.06,1.33,9.09.34,2.24.77,4.46,1.1,6.7.29,1.99.43,4.01.74,5.99.33,2.11.77,4.21,1.2,6.3.49,2.38,1.03,4.75,1.51,7.13.27,1.32.49,2.64.66,3.97.16,1.25.32,2.5.33,3.76.02,2.17-1,3.82-2.97,4.77-1.98.96-3.93.75-5.64-.62-1.57-1.25-2.62-2.84-2.68-4.96-.03-.91-.25-1.83-.45-2.73-.67-2.94-1.37-5.88-2.05-8.82-.48-2.09-.93-4.18-1.42-6.26-.31-1.31-.68-2.6-.99-3.9-.23-.98-.43-1.97-.59-2.96-.22-1.32-.38-2.66-.57-3.98-.15-1.04-.28-2.08-.44-3.11-.38-2.53-.76-5.06-1.16-7.59-.35-2.19-.76-4.38-1.09-6.58-.19-1.24-.27-2.5-.4-3.75-.14-1.29-.29-2.58-.43-3.87-.15-1.42-.28-2.84-.42-4.26-.09-.96-.19-1.92-.3-3.05Z"/>
        <path class="cls-8" d="m130.25,188.14c-.26,4.05-.79,7.71-1.53,11.34-.4,1.98-1.33,3.71-2.14,5.51-1.69,3.78-3.7,7.38-6.18,10.71-2.08,2.79-4.44,5.32-7.15,7.52-1.84,1.49-3.73,2.93-5.66,4.3-.85.6-1.86,1-2.82,1.44-1.5.68-3.02,1.33-4.54,1.97-.74.31-1.48.66-2.26.84-.51.12-1.09.04-1.62-.06-.54-.1-1.04-.35-1.56-.53-.99-.34-1.54-1.07-2.02-1.97-.8-1.5-.57-3-.32-4.54.19-1.16.41-2.32.45-3.49.09-2.56.83-4.94,1.8-7.27.57-1.35,1.16-2.71,1.85-4,.81-1.51,2.07-2.63,3.54-3.53.57-.35,1.07-.81,1.64-1.16.72-.44,1.48-.81,2.21-1.24.62-.37,1.25-.72,1.8-1.17,5.5-4.6,10.35-9.82,15.1-15.14.98-1.1,1.85-2.31,3.22-3.02.27-.14.43-.5.65-.76.8-.96,1.81-1.38,3.06-1.09,1.29.31,2.09,1.15,2.27,2.44.15,1.08.17,2.17.22,2.91Z"/>
        <path class="cls-10" d="m236.7,224.28c-2.65.19-5.27,0-7.87-.53-.39-.08-.84-.04-1.22.08-2.95.93-5.36-1.08-4.97-4.1.37-2.92.7-5.85.9-8.78.14-2,.03-4.02.03-6.03,0-3.4-.01-6.8.63-10.17.39-2.03,2.34-3.31,4.38-2.88,1.45.3,2.92.54,4.38.81.75.14,1.49.34,2.24.45,1.6.22,3.21.38,4.81.6.79.11,1.58.27,2.37.46,1.94.46,3.88.91,5.82,1.41,1.61.41,2.6,1.47,2.78,3.1.16,1.41.21,2.85.2,4.27-.03,2.86-.41,5.7-.96,8.51-.24,1.23-.22,2.52-.41,3.76-.15.99-.4,1.98-.7,2.94-.45,1.46-1.13,2.82-2.26,3.89-.48.46-1.04.87-1.63,1.17-1.42.72-2.98.97-4.56,1.04-1.32.06-2.64.01-3.96.01Z"/>
        <path class="cls-6" d="m130.3,87.59c.17,3.29-.36,6.21-1.45,9.04-.96,2.51-2.56,4.23-5.34,4.7-1.65.28-3.11-.13-4.5-1-2.6-1.64-4.64-3.74-6.08-6.48-1.13-2.15-2.15-4.35-2.45-6.73-.29-2.28-.17-4.61-.14-6.92.01-.8.39-1.53,1.14-2.02.3-.2.53-.55.7-.87.33-.63.62-1.29.89-1.95.64-1.58,1.75-2.73,3.37-3.24,1.37-.43,2.79-.71,4.22-.93.84-.13,1.69.08,2.38.69.18.15.44.26.67.29,2.32.27,3.49,1.73,4.07,3.81.41,1.46.74,2.94,1.27,4.35.92,2.44,1.58,4.9,1.24,7.26Z"/>
        <path class="cls-12" d="m112.35,104.2c.48.18.81.28,1.11.43,1.03.55,1.56,1.42,1.52,2.58-.04,1.11-.6,1.91-1.61,2.39-.34.16-.71.27-1.08.39-2.8.87-5.21,2.47-7.7,3.93-3.99,2.33-7.98,4.69-11.91,7.13-1.55.96-2.95,2.14-4.39,3.26-.36.28-.62.68-.9,1.06-1.03,1.41-2.68,1.76-4.02.84-1.32-.91-1.53-2.56-.58-4.03,1.23-1.91,3.06-3.17,4.88-4.38,3.14-2.1,6.39-4.01,9.61-6,.97-.6,2.14-1.02,2.9-1.82.75-.79,1.09-1.95,1.6-2.95.1-.19.17-.39.28-.57.71-1.14.86-2.22-.15-3.33-.38-.41-.48-1.07-.72-1.6-.31-.68-.61-1.37-.94-2.04-.49-1-.47-1.98.19-2.87.52-.71,1.09-1.41,1.75-1.98.68-.59.89-1.2.79-2.09-.52-4.36-.76-8.73-.59-13.12.04-1.17.33-2.32.5-3.48.05-.33.13-.66.1-.99-.11-1.24.21-2.37.96-3.32.81-1.03,1.7-1.99,2.63-2.92.8-.81,1.7-1.52,2.55-2.29.62-.56,1.3-.93,2.15-.99,1.74-.13,2.89,1.01,2.64,2.72-.09.61-.29,1.25-.62,1.78-1.42,2.3-3.22,4.22-5.74,5.4-.53.25-.99.64-1.61,1.05.06.6.11,1.26.18,1.92.42,3.89.95,7.78,1.22,11.68.1,1.42.07,2.83.44,4.23.69,2.64,1.87,5.04,3.58,7.18.65.82,1.12,1.69.97,2.81Z"/>
        <path class="cls-9" d="m44.21,270.66c-.04.7-.04,1.33-.11,1.95-.05.41-.07.94-.33,1.18-.79.72-1.66,1.37-2.57,1.94-.52.33-1.12.07-1.49-.37-.42-.5-.73-1.08-1.09-1.63-.43.34-.84.76-1.34,1.05-1.13.63-2.19.16-2.34-1.12-.09-.72-.01-1.54.25-2.21,1.06-2.66,2.62-5,4.98-6.74.1-.07.16-.19.28-.34-.17-.09-.3-.21-.44-.23-1.05-.13-1.38-.84-1.51-1.75-.5-3.42-1.02-6.83-1.51-10.25-1.1-7.67-2.22-15.32-3.99-22.88-.71-3.03-1.33-6.11-1.61-9.2-.78-8.4-2.58-16.63-3.83-24.96-.39-2.62-.7-5.26-.98-7.9-.09-.82,0-1.68.15-2.5.17-1.01.81-1.48,1.65-1.38.81.09,1.33.75,1.34,1.73,0,.25-.05.5-.09.84,1.09.49,1.34,1.34,1.23,2.54-.09,1.02.24,2.08.39,3.12.77,5.2,1.53,10.41,2.32,15.61.55,3.62,1.14,7.23,1.68,10.86.18,1.23.48,2.49-.28,3.68-.14.23-.04.66.04.97,1.31,4.93,2.19,9.95,3.02,14.98.57,3.44,1.47,6.83,2.16,10.26,1.07,5.28,2.1,10.57,3.12,15.86.13.68.43,1.11,1.03,1.48.82.51,1.6,1.12,2.32,1.77.57.52.92,1.22.79,2.04-.2,1.2-1.01,1.8-2.26,1.71-.13,0-.25-.04-.38-.05-.12-.01-.25-.01-.6-.03Z"/>
        <path class="cls-12" d="m137.67,84.98c3.68.52,5.56,3.07,5.45,6.32-.12,3.83-.33,7.66-1.28,11.4-.1.41-.19.82-.34,1.22-.42,1.12-1.1,1.6-2.31,1.61-2.64.03-5.29.06-7.93.06-1.57,0-2.18-.79-1.69-2.28.45-1.36,1.03-2.67,1.52-4.02,1.38-3.82,1.86-7.77,1.75-11.8-.02-.61-.29-1.22-.51-1.81-.71-1.85-1.57-3.63-1.85-5.63-.25-1.8-.02-2.2,1.84-2.62.59-2.31.4-4.48-1.56-6.09-1.43-1.17-2.94-2.24-4.88-2.61-2-.38-3.96-.99-5.93-1.53-.83-.23-1.23-.83-1.16-1.59.07-.76.6-1.24,1.46-1.31.25-.02.51-.02.77,0,2.7.24,5.37.53,7.98,1.47,1.74.62,3.41,1.28,4.9,2.36,1.08.78,1.99,1.69,2.67,2.84.93,1.57.72,2.22-.98,2.84-.05,1.04-.13,2.08-.15,3.11-.01.46.01.93.14,1.37.59,1.98,1.23,3.94,1.85,5.91.08.24.16.48.25.77Z"/>
        <path class="cls-9" d="m111.63,48.51c.26.04.68.09,1.09.18,2.65.57,5.33.46,8.01.48,1.62.01,3.24,0,4.85,0,1.71-.02,2.45.77,2.32,2.51-.08,1.05-.21,2.09-.3,3.14-.04.5-.01,1.01-.06,1.51-.06.71-.48,1.22-1.17,1.31-.95.12-1.92.22-2.87.19-5.04-.15-10.06-.1-14.87,1.7-2.02.76-4.06,1.5-5.82,2.82-.62.47-1.41.39-1.95-.24-.77-.89-1.48-1.84-2.1-2.83-.48-.76-.28-1.47.47-1.98,3.26-2.17,6.12-4.81,8.99-7.45.92-.84,1.97-1.3,3.38-1.34Z"/>
        <path class="cls-6" d="m169.45,96.89c-.06,1.76-.24,3.03-.83,4.24-.2.41-.29.88-.43,1.32-.86,2.79-2.96,4.39-5.6,5.22-1.91.6-3.79.11-5.39-1.18-3.84-3.09-4.37-7.63-2.52-11.76.87-1.95,2.37-3.41,4.37-4.21.76-.3,1.67-.32,2.51-.29,1.19.05,2.41.12,3.54.44,2.06.58,3.41,2.02,4.02,4.04.25.83.27,1.73.33,2.17Z"/>
        <path class="cls-8" d="m101.96,189.36c.06-1.25.85-2.12,1.28-3.11,1.49-3.42,3.99-6.12,6.64-8.67,1.42-1.37,2.99-2.6,4.56-3.81.73-.56,1.6-.94,2.42-1.38.75-.4,1.53-.74,2.27-1.15,1.6-.89,3.32-.52,4.24.95.96,1.52.68,3.43-.86,4.34-3.18,1.87-5.51,4.58-7.89,7.28-.94,1.07-2.08,1.98-3.04,3.04-1.3,1.44-2.49,2.97-3.77,4.42-1.44,1.65-3.78,1.61-5.07-.11-.38-.51-.53-1.19-.78-1.8Z"/>
        <path class="cls-9" d="m167.67,82.19c-3.87-.05-7.37,1.12-10.58,3.21-.43.28-.82.6-1.26.87-1.24.78-2.52.19-2.73-1.26-.07-.5-.03-1.01-.14-1.5-.24-1.04-.74-1.92-1.54-2.69-1.04-.99-1.03-1.72.02-2.66,1.04-.93,2.15-1.79,3.24-2.66.8-.63,1.64-1.2,2.44-1.83.99-.78,2.01-.95,3.21-.43,3.2,1.39,6.6,1.88,10.08,1.98.3,0,.6-.03.89.01,1.06.15,1.66,1.12,1.17,2.05-.64,1.2-1.14,2.42-1.37,3.77-.13.77-.79,1.07-1.52,1.13-.64.05-1.28,0-1.92,0Z"/>
        <path class="cls-12" d="m172.65,102.48c-.12-1.33-.24-2.4-.3-3.48-.05-.92-.03-1.85-.03-2.78.02-2.06-.53-3.97-1.45-5.81-.61-1.21-1.6-1.68-2.83-1.84-.84-.11-1.69-.15-2.53-.26-2.55-.34-5.01.06-7.4.91-.56.2-1.11.43-1.68.61-.57.19-1.06.44-1.48.92-.66.77-1.65.77-2.38.12-.67-.61-.74-1.53.05-2.21.65-.57,1.45-1.03,2.26-1.36,2.61-1.06,5.28-1.9,8.14-2.03.13,0,.28.01.38-.05,1.2-.67,2.41-.3,3.6-.02,2.11.5,4.16,1.05,5.86,2.6.85.77,2.01,1.22,2.66,2.27.08.13.26.21.4.29,1.41.81,1.75,1.39,1.47,2.97-.17.99-.45,1.97-.78,2.93-.46,1.32-.28,2.54.33,3.76.75,1.51.65,1.77-.72,2.84-.36.28-.64.67-.95,1.01-.54.6-1.04,1.23-1.61,1.78-.67.64-1.47.66-2.06.13-.63-.56-.66-1.38-.03-2.14.4-.48.85-.93,1.08-1.19Z"/>
        <path class="cls-9" d="m23.12,179.32c-.77-.22-1.58-.33-2.29-.67-1.77-.86-1.93-2.98-.41-4.13.7-.53,1.51-.96,2.33-1.26,1.35-.5,2.75-.87,4.14-1.25.44-.12.97-.24,1.38-.11,1.36.44,2.75.88,4.01,1.53,1.21.62,1.24,1.98.06,2.61-2.73,1.45-5.51,2.84-8.68,3.13-.17.02-.34,0-.51,0-.01.05-.03.1-.04.15Z"/>
        <path class="cls-12" d="m147.72,101.36c.48-2.29.77-4.69,2.24-6.72.22-.31.37-.66.56-.99.43-.73,1.1-1.01,1.82-.77.7.24,1.07.92.92,1.72-.29,1.61-.57,3.23-.89,4.84-.12.62-.05,1.16.3,1.68.34.49.65.98,1.01,1.46.76,1.02,1.07,2.19,1.15,3.42.05.89-.55,1.5-1.47,1.56-.98.07-1.74-.38-2.35-1.07-.87-.98-1.71-1.99-2.54-2.99-.5-.6-.8-1.29-.74-2.15Z"/>
        <path class="cls-9" d="m22.79,163.31c.12-.96.15-1.63.3-2.28.2-.89.93-1.44,1.71-1.4.82.04,1.29.6,1.43,1.63.1.75.26,1.48.36,2.23.08.62.17,1.25.15,1.87-.03,1.08-.49,1.57-1.47,1.72-.95.15-1.59-.19-1.92-1.22-.29-.9-.41-1.86-.56-2.54Z"/>
        <path class="cls-7" d="m167.54,134.39c.3-.17.59-.33.89-.5.04.07.08.14.12.21-.3.17-.59.33-.89.5-.04-.07-.08-.14-.12-.21Z"/>
      </g>
      <path class="cls-4" d="m86.87,206.81c.52-.24,1.08-.44,1.57-.73,1.45-.85,2.89-1.72,4.29-2.64.35-.23.71-.64.81-1.03,1.39-5.44,3.94-10.44,5.89-15.66.7-1.89,1.29-3.82,1.95-5.72.42-1.22.87-2.43,1.34-3.71-.22-.1-.47-.27-.74-.33-2.31-.53-3.5-2.19-4.26-4.24-.98-2.63-1.88-5.29-2.84-7.93-.21-.59-.47-1.18-.81-1.7-1.07-1.65-1.73-3.56-3.14-5-.37-.37-.72-.76-1.12-1.19.63-.58,1.39-.64,2.16-.32,1.3.53,2.45,1.28,3.28,2.45.58.82,1.32,1.54,1.83,2.4,1.68,2.8,3.39,5.6,4.53,8.69.14.39.31.78.51,1.15.61,1.13,1.58,1.62,2.83,1.27.88-.25,1.78-.58,2.52-1.11,2.43-1.72,5.16-2.78,7.88-3.88.54-.22,1.11-.37,1.68-.51,2.44-.62,4.88-1.22,7.32-1.86,1.37-.35,2.73-.43,4.11-.12,1.06.24,1.73.79,1.75,1.39.02.66-.65,1.35-1.65,1.69-.24.08-.48.17-.73.18-2.17.09-4.19.83-6.22,1.51-.88.29-1.78.5-2.64.81-1.18.42-2.41.77-3.5,1.37-1.8.98-3.48,2.19-5.26,3.2-1.27.72-2.6,1.36-3.96,1.87-.58.22-.88.49-1.16.99-.82,1.44-1.3,2.99-1.77,4.56-1.53,5.12-3.76,9.97-5.76,14.91-.47,1.16-.91,2.32-1.15,3.77,1.86-.9,3.36-1.94,4.73-3.17,2.87-2.58,5.82-5.07,8.61-7.74,3.24-3.1,6.36-6.34,9.5-9.55,1.82-1.86,3.56-3.79,5.4-5.64,3.11-3.12,6.28-6.19,9.41-9.29.32-.32.62-.7.79-1.1,1.01-2.44,1.94-4.92,2.98-7.34.9-2.12,1.86-4.22,2.89-6.29,1.01-2.03,2.21-3.96,3.22-5.98,1.35-2.68,2.21-5.52,2.44-8.54.13-1.75.54-3.5.23-5.26-.17-.99-.37-1.98-.67-2.93-.13-.4-.6-.68-.85-1.05-.15-.22-.18-.51-.26-.77.3-.02.66-.17.89-.05.74.37,1.22,1.02,1.48,1.81.77,2.28,1.23,4.59,1.26,7.02.04,2.84-.14,5.62-1.01,8.33-.27.84-.56,1.67-.94,2.47-.95,2.01-2,3.97-2.93,5.99-1.04,2.25-1.99,4.53-2.97,6.8-.08.18-.12.38-.24.78.42-.27.66-.4.88-.56,2.43-1.79,4.85-3.6,7.3-5.37,2.06-1.49,4.39-2.44,6.76-3.3,3.92-1.42,7.97-2.31,12.08-2.96,1.03-.16,2.09-.19,3.14-.2,2.44-.02,4.87-.03,7.31.02,1.04.02,2.08.2,3.29.33.08-.43.19-.9.26-1.38.38-2.56,1.19-4.98,2.4-7.25.61-1.15,1.45-2.16,2.66-2.79.29-.15.55-.38.76-.63.84-1.01,1.91-1.67,3.19-1.83,1.68-.21,3.29-.04,4.89.77,3.19,1.61,5.78,3.84,7.82,6.76,2.36,3.38,4.83,6.68,6.46,10.49.82,1.93,1.58,3.89,2.23,5.89.95,2.87,1.87,5.75,2.62,8.68.67,2.6,1.13,5.25,1.62,7.89.24,1.28.36,2.57.48,3.87.48,5.39.96,10.79,1.4,16.19.27,3.27.08,6.54-.18,9.81-.36,4.48-.58,8.97-.96,13.44-.18,2.13-.63,4.23-.91,6.35-.47,3.49-.89,7-1.35,10.49-.17,1.31-.41,2.62-.61,3.93h-.28c-.07-.72-.15-1.43-.2-2.16-.27-3.91.34-7.79.39-11.69.08-6.21.11-12.43.02-18.64-.06-3.95-.32-7.89-.61-11.83-.17-2.3-.63-4.57-.89-6.86-.71-6.36-2.36-12.53-3.75-18.76-1.31-5.84-3.47-11.29-6.5-16.43-1.45-2.46-2.81-4.98-4.74-7.11-1.13-1.24-2.24-2.52-3.48-3.64-.93-.84-2.1-1.38-3.4-1.51-.71-.07-1.42-.13-2.12-.25-.47-.08-.81,0-1.06.43-.33.56-.77.95-1.45,1.12-.28.07-.51.51-.66.83-.99,2.07-1.33,4.3-1.58,6.58.17.12.29.26.43.31,3.68,1.21,7.19,2.79,10.63,4.56,1.99,1.03,3.75,2.3,5.16,4.11.97,1.23,1.86,2.47,2.48,3.9.7,1.62.2,3.2-1.25,3.83-1.43.62-2.9-.02-3.61-1.56-1.05-2.27-2.54-4.14-4.81-5.27-2.93-1.46-5.89-2.85-8.84-4.26-.37-.18-.78-.26-1.32-.43-.33,1.86-.64,3.63-.96,5.39-.41,2.23-.85,4.45-1.22,6.69-.27,1.61-.43,3.24-.66,4.86-.33,2.33-.71,4.65-1.02,6.98-.42,3.16-.81,6.33-1.19,9.49-.37,3.08-.76,6.17-1.07,9.26-.22,2.17-.37,4.35-.45,6.53-.15,3.99-.23,7.98-.33,11.96,0,.2.03.4.05.75.48-.13.86-.24,1.25-.34,1.45-.38,2.81.3,3.25,1.64.46,1.39-.28,2.81-1.75,3.28-.91.29-1.84.53-2.88.82,0,.78.02,1.53,0,2.27-.16,4.99-.33,9.99-.49,14.98-.07,2.1-.06,4.2-.15,6.3-.25,6.09.09,12.17.25,18.26.11,3.99.13,7.98.37,11.96.2,3.27.66,6.51.99,9.77.18,1.8.32,3.6.47,5.39.03.38.01.76.07,1.13.46,3.28.94,6.55,1.4,9.82.13.96.27,1.91.32,2.88.07,1.35-.84,2.39-2.12,2.51-1.23.12-2.34-.67-2.54-1.94-.29-1.78-.47-3.57-.69-5.36-.21-1.7-.41-3.41-.63-5.11-.09-.75-.24-1.49-.3-2.24-.29-3.3-.59-6.6-.82-9.91-.27-3.85-.6-7.7-.7-11.56-.17-6.88-.34-13.77-.23-20.65.11-7.01.59-14.01.85-21.02.09-2.39.01-4.78.01-7.29-.46-.05-.91-.11-1.35-.13-1.43-.08-2.86-.1-4.28-.21-2.59-.21-4.99-1.07-7.28-2.25-1.16-.6-2.32-1.12-3.64-1.34-.94-.16-1.85-.54-2.75-.88-1.06-.4-2.11-.82-3.13-1.31-.71-.34-1.42-.74-2.04-1.22-2.06-1.58-4.11-3.19-6.12-4.84-.68-.55-1.33-1.18-1.85-1.88-1.23-1.69-2.45-3.4-3.54-5.18-1.43-2.34-2.31-4.93-3.17-7.52-.4-1.19-.77-2.4-1.07-3.61-.62-2.48-.51-5-.39-7.52.14-2.76.05-5.55.86-8.25.05-.18,0-.39,0-.73-.27.19-.45.28-.59.42-3.51,3.55-7,7.12-10.52,10.66-1.36,1.37-2.82,2.64-4.13,4.06-2.69,2.91-5.8,5.35-8.76,7.95-2.29,2.02-4.73,3.89-7.22,5.67-1.42,1.02-3.06,1.75-4.62,2.56-.66.35-1.1.78-1.41,1.5-1.23,2.83-1.94,5.8-2.53,8.82-.19.99-.44,1.96-.69,2.94-1.14,4.47-2.31,8.94-3.43,13.42-.54,2.16-1,4.34-1.49,6.5-.05.23-.08.47-.16.94,1.3-.38,2.47-.65,3.59-1.05,5.28-1.89,10.21-4.47,14.84-7.66,3.01-2.08,6.06-4.09,8.76-6.56,2.79-2.55,5.76-4.92,7.91-8.08,1.42-2.08,2.77-4.21,4.13-6.33.72-1.13,1.38-2.3,2.07-3.45.61-1.01,1.83-1.36,2.85-.82.97.51,1.37,1.64.94,2.7-.17.42-.4.84-.65,1.22-1.86,2.8-3.65,5.64-5.62,8.36-1.28,1.76-2.7,3.45-4.26,4.95-2.99,2.89-6.14,5.62-9.65,7.88-2.71,1.75-5.53,3.34-8.31,4.98-1.09.64-2.21,1.22-3.32,1.8-3.39,1.77-6.94,3.17-10.61,4.26-.88.26-1.77.54-2.67.74-.55.12-.73.43-.81.95-.35,2.2-.66,4.41-1.13,6.58-1.46,6.74-2.06,13.61-3.22,20.4-.8,4.67-1.46,9.37-2,14.08-.56,4.92-1.16,9.84-1.2,14.81-.02,2.52-.14,5.03-.21,7.55,0,.17,0,.34-.01.5-.12,1.1-.89,1.89-1.94,1.98-1.12.1-2.13-.56-2.29-1.7-.17-1.24-.23-2.51-.17-3.76.4-7.51,1.06-14.99,2.11-22.44.36-2.53.95-5.03,1.35-7.56.91-5.72,1.73-11.45,2.68-17.17.44-2.69,1.09-5.34,1.64-8.02.29-1.4.56-2.8.83-4.2.08-.4.1-.81.17-1.38-1.04-.01-1.99-.07-2.94-.03-1.99.08-3.94-.04-5.77-.95-.48-.24-1.05-.31-1.58-.39-3.13-.46-5.65-2.04-7.84-4.22-.41-.41-.94-.86-.58-1.62,1.48.74,2.92,1.45,4.35,2.19,1.17.61,2.39.99,3.7,1.15,1.25.15,2.49.39,3.71.68,2.54.62,5.08.16,7.63.3,2.94-10.72,5.83-21.3,8.77-32-1.44.61-2.65,1.18-3.89,1.65-1.14.42-2.31.75-3.48,1.08-.55.16-.95.43-1.27.93-1.8,2.69-3.52,5.43-5.48,8-1.75,2.3-3.76,4.4-5.68,6.56-2.69,3.01-6.03,5.16-9.41,7.31-2.57,1.64-5.36,2.61-8.25,3.33-2.32.58-4.73.88-7.11.32-1.99-.47-3.82-1.29-5.03-3.09-.15-.22-.4-.38-.8-.75.42,2.4.79,4.55,1.17,6.69,1.27,7.19,2.54,14.39,3.81,21.58.05.29.09.59.04.87-.08.42-.37.67-.82.59-.85-.14-1.69-1.04-1.85-1.95-.26-1.57-.52-3.15-.77-4.72-1.42-8.62-2.83-17.23-4.25-25.85-.08-.48-.12-.98-.21-1.71.95.9,1.73,1.64,2.51,2.36.4.37.78.78,1.24,1.06,1,.61,2.04,1.15,3.07,1.71,1.49.8,3.05.97,4.75.89,2.52-.12,4.87-.87,7.22-1.64,2.14-.7,3.89-2.13,5.77-3.32,4.45-2.79,7.85-6.69,11.12-10.69,1.64-2.01,2.99-4.26,4.46-6.4.04-.05,0-.16,0-.4-.88.14-1.76.18-2.58.42-3.61,1.06-7.24.64-10.87.26-.94-.1-1.74-.53-2.33-1.54.46-.02.81-.05,1.16-.05,3.36-.02,6.71-.31,10-1.01,2.17-.46,4.28-1.19,6.42-1.79.78-.22,1.32-.68,1.65-1.43.96-2.14,1.97-4.26,2.9-6.42,1.16-2.7,2.27-5.42,3.39-8.13,1.24-3,2.12-6.1,2.64-9.3.46-2.81,1.15-5.59,1.1-8.47-.01-.53.21-1.07.26-1.61.12-1.16.21-2.32.32-3.49.03-.37.04-.76.13-1.12.19-.72.65-.91,1.34-.59.6.28,1,.71,1.19,1.37.89,3.07,1.04,6.18.59,9.35-.47,3.34-1.42,6.56-2.32,9.79-.79,2.87-1.55,5.76-2.6,8.54-1.08,2.86-2.48,5.6-3.74,8.39-.08.19-.17.37-.26.56.06.06.12.13.18.19Zm93.07-54.02c-.77-.11-1.46-.27-2.16-.31-1.22-.06-2.44,0-3.65-.07-3.58-.22-7.1.09-10.63.8-5.85,1.17-11.26,3.21-16.05,6.85-3.49,2.64-6.8,5.47-9.89,8.56-.29.29-.59.63-.73,1-1.13,3.09-1.86,6.29-2.05,9.57-.13,2.34-.03,4.7.01,7.05.02.92.07,1.86.27,2.75.89,3.86,2.28,7.55,4.26,10.98.71,1.23,1.64,2.32,2.45,3.49.77,1.12,1.72,2.05,2.89,2.77.39.24.79.49,1.13.8,2.4,2.23,5.09,3.95,8.24,4.93.72.22,1.43.53,2.17.63,1.53.2,2.89.8,4.27,1.43,1.18.54,2.38,1.14,3.63,1.38,1.88.36,3.82.43,5.74.59.57.05,1.14,0,1.81,0,.07-1.66.14-3.17.2-4.67.12-3.23.19-6.46.38-9.69.34-5.83,1.27-11.59,2.16-17.36.8-5.18,1.49-10.39,2.36-15.56.64-3.8,1.51-7.57,2.28-11.35.3-1.47.59-2.95.92-4.58Z"/>
      <path class="cls-4" d="m219.31,47.98c-1.28-1.14-2.62-2.21-3.82-3.43-2.55-2.58-5.38-4.83-8.25-7.01-4.15-3.15-7.88-6.8-11.97-10.02-11.52-9.06-24.18-15.92-38.36-19.8-3.48-.95-7.02-1.69-10.58-2.28-1.34-.22-2.65-.5-3.95-.84-.2-.05-.41-.08-.62-.09-3.9-.1-7.81-.31-11.71-.27-14.7.15-28.57,3.76-41.73,10.21-12.35,6.05-23.18,14.2-32.81,23.97-13.36,13.55-23.61,29.23-31.59,46.44-7.01,15.12-11.95,30.91-15.18,47.25-1.78,9.03-3.02,18.14-3.69,27.32-.79,10.87-.83,21.74-.12,32.61,1.15,17.51,4.22,34.66,9.4,51.42,5.65,18.25,13.56,35.43,24.47,51.16,2.58,3.72,5.44,7.25,8.16,10.89.98,1.31,1.85,2.7,2.85,3.98,2.69,3.44,5.36,6.89,8.16,10.23,1.53,1.83,3.31,3.45,4.97,5.17.41.42.81.84,1.21,1.26-.05.07-.1.14-.16.2-.33-.26-.68-.52-1-.79-14.5-12.11-26.43-26.37-35.85-42.74-9.8-17.01-16.66-35.17-21.15-54.25-1.99-8.47-3.48-17.03-4.47-25.67C.2,191.17-.23,179.39.11,167.57c.17-5.92.51-11.84,1.14-17.73,3.1-29.07,11.08-56.62,25.63-82.11,6.59-11.55,14.45-22.15,23.71-31.7,9.48-9.78,20-18.16,32.11-24.49,10.02-5.24,20.59-8.81,31.78-10.49C121.19.05,127.95-.18,134.72.12c3.95.17,7.85.68,11.75,1.3,14.92,2.37,28.41,8.22,40.85,16.61,11.99,8.09,22.37,17.98,31.6,29.1.19.22.36.46.53.69-.05.05-.09.11-.14.16Z"/>
      <path class="cls-4" d="m79.38,333.5c.4.22.8.43,1.2.66,9.98,5.65,20.56,9.7,31.87,11.75,3.38.61,6.79,1.16,10.21,1.49,2.24.21,4.51.4,6.78,0,.85-.15,1.75.06,2.63.05,6.57-.13,13.05-1.01,19.45-2.53,10.63-2.53,20.56-6.74,29.88-12.42,1.25-.76,2.39-1.68,3.61-2.49.58-.38,1.26-.63,1.83-1.02,10.87-7.44,20.26-16.46,28.5-26.7,11.36-14.13,20-29.81,26.57-46.67,5.25-13.46,8.98-27.34,11.43-41.57,2.62-15.24,3.68-30.6,3.19-46.05-.89-28.2-6.5-55.39-17.82-81.31-3.6-8.25-7.78-16.19-12.59-23.81-.2-.31-.37-.64-.49-1.05.65.16,1.12.6,1.54,1.06,1.52,1.68,2.98,3.42,4.51,5.08,2.32,2.53,4.01,5.48,5.72,8.42.46.8,1.09,1.5,1.53,2.31,1.13,2.1,2.29,4.2,3.29,6.37,5.13,11.22,9.08,22.85,12.08,34.81,2.4,9.54,4.14,19.2,5.25,28.97,1.35,11.83,1.76,23.7,1.41,35.6-.22,7.35-.72,14.68-1.65,21.98-3.5,27.67-11.48,53.89-25.46,78.14-9.47,16.43-21.39,30.82-36.13,42.8-2.96,2.41-6.12,4.57-9.23,6.79-.95.68-2.03,1.17-3.05,1.75-.4.23-.87.4-1.17.72-.97,1.04-2.26,1.56-3.46,2.22-10.45,5.8-21.54,9.79-33.35,11.66-3.36.53-6.73,1.04-10.12,1.28-2.62.18-5.28-.08-7.92-.14-.71-.02-1.43-.07-2.14-.05-3.87.13-7.7-.13-11.49-1.02-3.1-.73-6.27-1.19-9.35-2.01-3.36-.89-6.66-2.02-9.97-3.11-1.96-.65-3.78-1.56-5.44-2.83-2.36-1.81-4.85-3.45-7.24-5.24-1.57-1.18-3.04-2.48-4.56-3.73.05-.05.11-.1.16-.15Z"/>
      <path class="cls-4" d="m27.73,168.93c1.64.24,3.15.59,4.68.64,3.5.13,6.56,4.56,3.69,8.64-.74,1.05-1.73,1.95-2.73,2.77-1.04.84-1.37,1.74-1.12,3.07,1.23,6.73,2.39,13.47,3.76,20.28.16-.39.37-.77.48-1.18.74-2.73,2.33-4.87,4.41-6.75,3.09-2.78,5.93-5.81,8.54-9.05,1.34-1.66,2.7-3.32,3.89-5.09,2.07-3.06,3.86-6.29,5.36-9.68,1.66-3.76,3.41-7.48,5.05-11.25.82-1.88,1.52-3.82,2.22-5.75.9-2.44,1.9-4.82,3.14-7.13,1.31-2.44,2.67-4.85,4.18-7.17,1.49-2.29,3.03-4.54,4.66-6.72,1.76-2.35,3.6-4.64,5.47-6.91,2.23-2.7,4.92-4.95,7.75-6.98,2.65-1.91,5.51-3.54,8.18-5.44,3.36-2.39,7.1-3.96,10.9-5.42,1.01-.39,2.08-.67,3.14-.92.92-.21,1.73.26,2.04,1.07.33.87.02,1.78-.91,2.21-.95.44-1.97.71-2.94,1.1-3.51,1.41-6.91,2.99-10.07,5.13-3.58,2.42-7.35,4.56-10.63,7.41-1.97,1.71-3.84,3.5-5.47,5.55-3.31,4.18-6.66,8.33-9.42,12.92-2.66,4.43-5.21,8.89-6.91,13.82-.83,2.41-2.05,4.69-3.09,7.03-1.02,2.3-1.98,4.63-3.08,6.88-1.31,2.67-2.65,5.34-4.18,7.89-1.5,2.52-3.17,4.94-4.91,7.3-1.24,1.68-2.64,3.27-4.13,4.75-2.52,2.51-5.16,4.91-7.75,7.36-1.24,1.18-2.11,2.61-2.69,4.21-.96,2.64-1.88,5.29-2.84,7.92-.2.54-.51,1.05-.86,1.75-.14-.43-.26-.68-.3-.94-1.46-8.65-2.9-17.3-4.37-25.95-.12-.69-.4-1.35-.67-2.01-.65-1.62-.61-3.23.27-4.73.5-.85,1.15-1.68,1.9-2.32,1.47-1.26.84-3.05-.42-3.63-.57-.26-1.15-.55-1.76-.66-2.22-.41-3.62-1.75-4.23-3.82-.2-.69.02-1.57.23-2.31.61-2.2.47-4.32-.55-6.36-.15-.3-.33-.6-.58-.82-.2-.17-.52-.32-.77-.3-.81.07-1.91,1.17-1.85,1.96.15,1.75.35,3.51.67,5.23.11.6.68,1.11,1.01,1.68.24.41.36.84.05,1.3-.1.15-.12.4-.08.58.21,1.02-.2,1.86-.91,2.49-1.03.91-2.11,1.8-3.27,2.55-1.35.88-1.78,1.47-.82,3.36.26.5.59.76,1.17.78,3.19.12,4.87,2.11,5.94,4.83.36.91.25,1.8-.17,2.68-.16.34-.23.79-.19,1.17.25,2.12.55,4.22.87,6.62-.41-.3-.58-.42-.8-.58.46,2.77.92,5.5,1.38,8.23,1.46,8.69,2.91,17.39,4.4,26.08,1.49,8.65,3.01,17.29,4.56,25.92.27,1.48.8,2.92,1.06,4.4.37,2.15.61,4.32.87,6.48.04.31-.04.68-.18.96-.5.96-1.04,1.9-1.58,2.85-.6,1.06-1.21,2.11-1.85,3.15-.47.76-.88,1.66-.3,2.34.58.68,1.54.35,2.34,0,.38-.16.77-.33,1.17-.44,1.23-.35,2.24,0,3.03.98.48.59.91,1.21,1.36,1.81.15.2.28.42.45.61.73.84,1.31.76,1.79-.27.21-.45.32-.95.43-1.44.18-.78.32-1.56.5-2.34.24-1.02.91-1.64,1.94-1.69.94-.05,1.56-.49,2.07-1.21.69-.98.63-1.98-.24-2.81-.52-.49-1.07-.94-1.6-1.41-.34-.3-.73-.56-.6-1.23.35.09.67.14.96.26,1.28.52,2.51,1.11,3.56,2.06,1.03.94,1.15,2.01.72,3.2-.51,1.43-1.41,2.58-2.69,3.39-.82.52-1.23,1.22-1,2.11.45,1.72-.37,2.94-1.46,4.05-1.3,1.31-2.93,1.76-4.74,1.49-1.12-.17-1.84-.93-2.46-1.81-.92-1.32-1.15-1.49-2.56-.82-2.36,1.12-4.93-.54-5.59-3.15-.75-2.99-.17-5.48,1.42-8,.86-1.36,1.33-2.97,1.89-4.5.36-1,.3-2.05.11-3.11-1.98-11.29-3.94-22.58-5.9-33.87-2.41-13.85-4.84-27.7-7.23-41.56-.14-.81-.46-1.3-1.21-1.56-.79-.28-1.55-.64-2.35-.9-1.36-.45-2.47-1.24-3.37-2.33-1.37-1.65-1.36-4.06.06-5.67.99-1.12,2.2-1.96,3.63-2.41,1.36-.43,2.44-1.27,3.6-2.25-.27-.43-.51-.85-.79-1.24-2.51-3.45-2.7-7.21-1.43-11.14.35-1.08,1.13-1.84,2.23-2.01,1.1-.16,2.26-.18,3.36-.06.51.06,1.06.51,1.42.93,1.32,1.54,2.08,3.34,2.11,5.4.01,1.05-.03,2.1-.01,3.15.02,1.35-.3,2.57-1.19,3.63-.16.19-.21.48-.31.71Z"/>
      <path class="cls-4" d="m165.03,112.9c.42.01.84.07,1.26.02,2.68-.29,5.24.36,7.83.91,5.16,1.09,9.8,3.42,14.39,5.88,4.66,2.5,9.28,5.07,13.92,7.6,2.28,1.24,4.7,2.03,7.32,2.04.96,0,1.91-.24,2.87-.29.78-.03,1.6-.05,2.35.14,1.1.29,1.34.94.66,1.87-.43.59-1.05,1.1-1.69,1.45-2.33,1.28-4.85,1.25-7.36.72-2.43-.51-4.73-1.38-6.92-2.6-5.53-3.08-11.08-6.15-16.69-9.08-3.76-1.97-7.75-3.32-11.94-4.18-2.53-.52-4.96-.5-7.47-.06-2.23.39-4.49.58-6.74.85-2.51.3-4.9,1.05-7.29,1.84-4.41,1.46-8.2,4.03-12.02,6.52-1.65,1.07-3.09,2.45-4.66,3.65-3.88,2.95-7.87,5.77-12.53,7.36-1.85.63-3.83,1.07-5.77,1.17-1.54.08-3.17-.31-4.6-1.08-.13-.07-.23-.21-.29-.52.46.06.95.04,1.39.18,1.87.61,3.65.35,5.38-.45,1.6-.73,3.21-1.43,4.77-2.24,1.49-.77,2.95-1.61,4.35-2.52,3-1.94,5.69-4.28,8.38-6.63,1.41-1.24,2.97-2.33,4.53-3.38,1.85-1.23,3.73-2.43,5.68-3.49,1.43-.77,3-1.29,4.51-1.92.38-.16.76-.32,1.28-.54-.35-.27-.58-.48-.84-.65-3.17-1.94-6.64-3.23-10.11-4.47-1.66-.6-3.54-.59-5.33-.84-1.78-.25-3.6-.23-5.52-.95.39-.19.61-.34.85-.4,2.19-.54,4.35-1.27,6.65-1.3,2.7-.03,5.34.08,7.94,1,2.45.87,4.95,1.62,7.21,2.94,1.44.84,2.82,1.8,4.18,2.78.38.27.67.38,1.13.3,2.02-.35,4.06-.64,6.08-.99.98-.17,1.94-.46,2.91-.69l-.04.03Z"/>
      <path class="cls-4" d="m103.77,73.42c-.2.45-.39.91-.62,1.36-1.83,3.65-2.05,7.46-1.14,11.39.25,1.1.34,2.24.46,3.36.19,1.68-.39,3.15-1.42,4.44-.71.88-1.48,1.71-2.2,2.58-.37.45-.76.91-1.02,1.42-.62,1.22-.44,2.46.65,3.28,2.31,1.75,2.06,4.89.45,6.7-.94,1.05-2.01,1.91-3.26,2.54-3.23,1.64-6.27,3.56-9.2,5.68-1.75,1.27-3.26,2.77-4.57,4.47-1.08,1.41-1.58,2.96-.98,4.71.34.99.12,1.73-.67,2.46-.71.65-1.23,1.48-2.27,1.69-1.16.24-1.78.07-2.32-.98-1.15-2.26-1.34-4.56,0-6.84,1.97-3.37,4.7-5.96,7.93-8.11,3.12-2.08,6.49-3.69,9.77-5.46,1.24-.67,2.35-1.46,3.17-2.62.65-.91.63-1.11-.21-1.9-1.81-1.7-2.38-4.08-1.31-6.3.44-.91,1.21-1.69,1.91-2.46.7-.77,1.52-1.44,2.25-2.2.82-.85,1.29-1.85,1.15-3.07-.08-.75.01-1.54-.18-2.25-.57-2.11-.55-4.24-.36-6.38.22-2.56,1.03-4.92,2.76-6.89.29-.33.66-.58.99-.87.08.08.16.15.24.23Z"/>
      <path class="cls-4" d="m115.98,70.25c-1.46,3.96-4.51,6.33-8.08,8.52.04,1.62.03,3.42.28,5.2.22,1.58.53,3.15.94,4.69.31,1.17.8,2.29,1.25,3.42,1.66,4.19,4.23,7.71,7.8,10.47.65.51,1.41.93,2.18,1.23,1.65.65,3.29.18,4.4-1.22.84-1.05,1.59-2.16,2.38-3.25.1-.14.21-.27.26-.43.76-2.52,1.85-4.96,1.82-7.67,0-1.26.15-2.51.26-3.77.04-.39.18-.77.28-1.15.08,0,.17,0,.25-.01.11.24.29.48.33.73.48,3.12.71,6.25.1,9.39-.15.78-.12,1.59-.24,2.37-.27,1.71-1.19,3.11-2.19,4.48-.84,1.16-1.76,2.19-3.04,2.95-1.83,1.07-3.68,1.11-5.57.42-1.34-.49-2.53-1.26-3.62-2.24-2.11-1.9-3.95-4.03-5.31-6.51-1.64-2.99-2.84-6.16-3.37-9.57-.5-3.18-.15-6.37-.23-9.55-.04-1.79.71-2.84,2.1-3.8,1.73-1.19,3.37-2.54,4.33-4.49.36-.74.6-1.55.88-2.33.08-.24.1-.49.18-.73.33-.96,1.05-1.2,1.85-.58.43.33.82.72,1.18,1.13,1.07,1.21,2.47,1.74,4.01,1.85,2.46.17,4.74,1.07,7.07,1.73,2.06.58,3.64,2.86,3.63,4.96,0,.17.05.37-.03.49-.14.22-.34.47-.56.54-.13.04-.46-.21-.53-.39-.16-.38-.22-.81-.29-1.22-.26-1.56-1.2-2.59-2.65-3.08-1.15-.39-2.34-.62-3.59-.44-1.77.26-3.52.06-5.24-.36-.95-.23-1.84-.58-2.55-1.29-.17-.17-.39-.29-.68-.49Z"/>
      <path class="cls-4" d="m210.85,250.54c-.06.68-.12,1.36-.19,2.04-.22,2.13-.44,4.26-.67,6.38-.58,5.26-1.34,10.49-3.19,15.49-1.22,3.3-2.38,6.63-3.65,9.9-.9,2.3-1.96,4.53-3.22,6.67-.93,1.58-1.7,3.27-2.44,4.96-.76,1.74-1.7,3.36-2.84,4.88-.65.87-1.23,1.8-1.87,2.68-.6.83-1.31,1.06-2.05.7-.79-.38-.94-1.08-.73-2.13.52-2.67,2.06-4.84,3.43-7.08,1.29-2.12,2.49-4.27,3.45-6.56,1.03-2.47,2.24-4.88,3.21-7.38.95-2.42,1.68-4.92,2.55-7.36.63-1.78,1.25-3.56,2.02-5.28,1.12-2.5,1.92-5.09,2.52-7.76.53-2.33,1.14-4.64,1.79-6.94.17-.62.6-1.17.9-1.76.25-.5.49-1,.74-1.5.08.02.17.03.25.05Z"/>
      <path class="cls-4" d="m151.16,108.34c-.94,1.34-1.02,1.35-2.26.7-.4-.21-.85-.34-1.29-.44-3.03-.66-5.23-3.23-5.28-6.32-.02-1.04.11-2.1.34-3.11.45-2,1.05-3.97,1.54-5.97.5-2.02.25-3.85-1.14-5.55-.99-1.22-2-2.34-3.34-3.18-1.59-.99-2.66-2.36-3.01-4.29-.33-1.78-.79-3.52-.23-5.33.04-.11.03-.26,0-.37-.46-1.48-.73-3.02-1.62-4.34-.14-.21-.29-.42-.49-.57-2.99-2.24-6.14-4.12-10.06-4.08-.43,0-1.09.13-1.13-.48-.05-.7.66-.67,1.12-.71,2.58-.21,5.01.44,7.31,1.54,1.32.63,2.61,1.38,3.78,2.25.78.58,1.54,1.38,1.94,2.25.8,1.74,1.6,3.51,1.53,5.53-.05,1.44.35,2.85.97,4.13.35.72.95,1.45,1.63,1.83,2.19,1.22,3.58,3.14,4.91,5.13.41.61.73,1.34.89,2.07.56,2.56.81,5.14.33,7.75-.22,1.21-.58,2.37-1.33,3.37-.86,1.14-.85,2.26-.16,3.51.73,1.32,1.63,2.41,2.97,3.15.75.42,1.39,1.03,2.08,1.55Z"/>
      <path class="cls-4" d="m171.66,86.85c.76.22,1.35.4,1.95.57.6.17,1.22.32,1.82.5,3.25,1.01,4.5,3.9,4.61,6.54.03.67-.3,1.38-.57,2.02-.5,1.2-.56,1.22.36,2.04,1.14,1.01,1.79,2.27,2.28,3.69.52,1.52.09,2.89-.41,4.26-.22.6-.71,1.01-1.35,1.24-1.07.39-2.09.81-3.29.49-.71-.19-.83-.03-.96.74-.3,1.8-1.34,2.52-3.21,2.27-.45-.06-.92.02-1.38-.03-.36-.04-.75-.12-1.05-.32-.42-.28-.35-.77.1-1,.18-.09.4-.13.6-.18,1.1-.23,1.73-.8,1.88-2.01.23-1.82,1.07-2.47,2.89-2.35.86.06,1.62,0,2.05-.83.47-.92.73-1.9.23-2.89-.24-.48-.58-.93-.92-1.35-1.06-1.32-1.44-3.51-.03-4.96.45-.47.54-1.03.47-1.63-.29-2.52-1.4-3.71-4.15-4.62-1.14-.38-2.2-.82-3.08-1.63-.24-.22-.49-.48-.65-.76-.26-.47-.6-.99.28-1.29.18-.06.32-.47.36-.73.42-2.94,1.84-5.47,3.26-7.99.4-.72.98-1.37,1.57-1.96.69-.7,1.78-.65,2.47,0,.61.58.56,1.44-.12,2.24-.11.13-.22.26-.35.37-1.93,1.53-3.07,3.66-4.23,5.73-.64,1.14-.95,2.47-1.45,3.84Z"/>
      <path class="cls-4" d="m165.07,112.87c-.58.01-1.17.08-1.75.03-.83-.08-1.66-.3-2.49-.36-1.59-.11-2.9-.81-4.08-1.79-2.96-2.46-4.85-5.55-5.28-9.41-.14-1.24-.04-2.52.04-3.77.03-.46.3-.91.69-1.32,0,.77.02,1.53,0,2.3-.05,1.53.21,2.96.93,4.36,1.44,2.83,3.46,5.02,6.26,6.5,1.16.61,2.48.66,3.68.5.86-.12,1.67-.88,2.44-1.44,2.58-1.88,3.26-4.7,3.56-7.62.23-2.26.19-4.51-.82-6.66-.51-1.07.12-1.84,1.3-1.73.43.04.89.24,1.25.5.92.66,1.49,1.59,1.77,2.68.42,1.65.56,3.36.22,5-.71,3.34-1.77,6.6-4.13,9.2-1.05,1.16-2.41,2.06-3.62,3.07l.04-.03Z"/>
      <path class="cls-4" d="m108.73,45.76c-.23.66-.33,1.3-.65,1.82-.64,1.03-1.33,2.03-2.12,2.94-.77.88-1.72,1.61-2.53,2.46-1.58,1.66-3.5,2.71-5.68,3.35-.72.21-1.41.53-2.1.83-1,.44-2.01.84-3.14.82-.91-.01-1.62-.39-2.17-1.09-.6-.76-.56-1.67.26-2.19.61-.39,1.37-.63,2.09-.75,2.28-.36,4.59-.67,6.69-1.66,1.59-.75,3.13-1.63,4.6-2.59,1.71-1.12,2.77-2.76,3.3-4.75.41-1.55,1.12-1.82,2.43-.92,2.69,1.85,5.77,2.41,8.92,2.76.66.07,1.35,0,2.01.05,2.45.22,4.63-.55,6.7-1.78.25-.15.5-.32.78-.41.49-.15.91,0,1.18.46.25.42.15.81-.15,1.15-.11.12-.25.23-.39.31-2.24,1.3-4.53,2.31-7.22,2.27-2.66-.04-5.27-.18-7.85-.91-1.47-.41-2.88-.91-4.15-1.76-.23-.16-.51-.26-.82-.41Z"/>
      <path class="cls-4" d="m174.78,72.2c-.46.45-.88.97-1.39,1.33-1.11.79-2.35,1.29-3.74,1.32-1.47.03-2.94.22-4.39.08-3.34-.32-5.75-2.1-7.32-4.94-.79,1.19-1.46,2.57-2.46,3.64-2.14,2.28-4.46,4.34-7.89,4.37-1.61.02-2.53-.97-2.3-2.54.11-.71.78-1.24,1.76-1.36.67-.08,1.34-.09,2-.22,3.55-.69,6.39-2.44,8.21-5.64.45-.8.77-1.67,1.22-2.47.16-.28.51-.58.81-.62.21-.03.57.34.69.6.94,2.19,2.58,3.8,4.27,5.38.99.92,2.14,1.34,3.52,1.43,2.14.14,4.15-.52,6.24-.66.2-.01.4-.02.6-.03l.19.31Z"/>
      <path class="cls-4" d="m105.63,67.24c-.23-.31-.38-.61-.61-.81-.95-.83-1.16-1.88-.35-2.84.5-.59,1.16-1.14,1.86-1.43,3.63-1.47,7.41-2.1,11.33-1.8,1.71.13,3.43.2,5.14.33.79.06,1.58.19,2.36.36.48.1.83.43.76.99-.06.49-.55.78-1.18.62-2.73-.69-5.41-.15-8.1.28-1.92.3-3.78.76-5.54,1.59-.8.38-1.61.74-2.33,1.23-1.02.68-2.09,1.22-3.34,1.47Z"/>
      <path class="cls-4" d="m128.14,59.68c.22-1.9.54-4.06,1.36-6.1.52-1.28.99-2.58,1.56-3.85.27-.6.66-1.16,1.09-1.67.17-.21.63-.36.86-.27.19.07.34.54.32.82-.04.62-.27,1.24-.27,1.86,0,2.55.04,5.11.09,7.66.02,1.26.17,2.51.14,3.77-.04,1.61-1.47,2.4-2.95,1.71-1.35-.62-2.27-2.16-2.19-3.93Z"/>
      <path class="cls-4" d="m166.53,85.2c-.32.02-.65.08-.97.04-1.24-.14-2.13.63-3.09,1.21-.18.11-.29.67-.18.86.29.49.65,1.02,1.13,1.29,1.46.85,3.03,1.17,4.7.56.57-.21,1.16-.35,1.93-.58-.04.5.01.8-.1,1.02-.17.32-.42.64-.7.87-2.39,1.96-7.42,1.74-9.26-1.37-.25-.43-.51-.89-.6-1.37-.25-1.37-.03-2.78,1.89-3.08,1.27-.19,2.57-.2,3.86-.18.49,0,.97.32,1.45.5-.02.08-.04.15-.06.23Z"/>
      <path class="cls-4" d="m101.42,68.78c-.2-.1-.36-.12-.42-.21-.77-1.21-1.87-2.13-2.81-3.19-1.9-2.14-4.13-3.65-7.02-4.07-.78-.11-1.21-.6-1.18-1.22.03-.68.6-1.17,1.41-1.11.54.04,1.08.16,1.59.34,2.59.91,4.79,2.39,6.52,4.54.81,1.01,1.75,1.94,2.14,3.23.18.58.29,1.14-.23,1.7Z"/>
      <path class="cls-4" d="m157.86,86.84c.47,1.1.54,2.22,0,3.34-1.33,2.78-4.79,4.29-7.72,3.32-.47-.15-.93-.4-1.32-.7-.55-.43-.64-1.21-.3-1.82.32-.56.93-.79,1.63-.59.2.06.39.16.57.25.78.42,1.61.47,2.43.21.83-.27,1.67-.56,2.45-.93.88-.42,1.36-1.2,1.62-2.13.1-.35.21-.69.31-1.03.11.02.21.05.32.07Z"/>
      <path class="cls-4" d="m143.77,78.92c1.14-.06,2.17.33,3.07,1.03,1.52,1.19,2.99,2.46,4.07,4.07.65.97,1.15,2.04,1.66,3.09.24.48-.03.9-.46,1.17-.4.25-.86.23-1.15-.13-.31-.38-.6-.83-.73-1.29-.69-2.54-2.33-4.41-4.27-6.07-.38-.32-.86-.52-1.28-.78-.37-.23-.73-.48-1.09-.73.06-.12.11-.25.17-.37Z"/>
    </g>
    <g>
      <path class="cls-4" d="m407.26,271.52h-9.43c-9.2,8.38-22.23,12.57-39.08,12.57-10.02,0-19.29-2.78-27.81-8.34-8.52-5.56-15.12-12.59-19.81-21.11-4.69-8.52-7.04-17.29-7.04-26.31,0-9.84,2.34-19.08,7.04-27.74,4.69-8.65,11.25-15.67,19.68-21.04,8.43-5.37,17.74-8.06,27.95-8.06,5.47,0,10.7.75,15.72,2.25,5.01,1.5,9.11,3.3,12.3,5.4,3.19,2.1,5.99,4.19,8.4,6.29,2.41,2.1,4.17,3.87,5.26,5.33l1.5,2.32-13.67,13.26-2.05-1.64c.36-.45.55-1.41.55-2.87,0-4.19-2.55-8.47-7.65-12.85-5.1-4.37-11.89-6.56-20.36-6.56-10.3,0-18.97,4.4-26.03,13.19-7.06,8.79-10.59,19.7-10.59,32.73,0,11.2,3.92,21.16,11.75,29.86,7.83,8.7,16.62,13.1,26.37,13.19h.55c11.57,0,20.22-4.51,25.96-13.53v-8.47c0-2.64-1.12-5.12-3.35-7.45-2.23-2.32-4.67-3.49-7.31-3.49v-3.96h27.74v26.1c0,1.28.29,2.82.89,4.65.59,1.82,1.16,3.33,1.71,4.51l.82,1.78Z"/>
      <path class="cls-4" d="m486.1,263.46l3.01,19.95h-76.25v-2.6c1.64,0,3.12-.93,4.44-2.8,1.32-1.87,1.98-3.89,1.98-6.08v-88.69c0-1.73-.68-3.62-2.05-5.67-1.37-2.05-2.82-3.07-4.37-3.07v-2.46h30.34v2.46c-1.55,0-3.03.98-4.44,2.94-1.41,1.96-2.12,3.89-2.12,5.81v88.96h38.13c1.82,0,3.78-1.05,5.88-3.14,2.09-2.1,3.14-3.96,3.14-5.6h2.32Z"/>
      <path class="cls-4" d="m647.63,235.17c.73,1.18,2.48,4.24,5.26,9.15,2.78,4.92,5.12,8.88,7.04,11.89,1.91,3.01,4.3,6.51,7.17,10.52,2.87,4.01,5.69,7.17,8.47,9.5,2.78,2.32,5.49,3.81,8.13,4.44v2.73h-25.96l-25.28-47.28h-11.48v35.8c0,2.28.66,4.33,1.98,6.15,1.32,1.82,2.8,2.73,4.44,2.73v2.6h-30.47v-2.6c1.64,0,3.14-.93,4.51-2.8,1.37-1.87,2.05-3.89,2.05-6.08v-88.41c0-1.73-.71-3.67-2.12-5.81-1.41-2.14-2.89-3.21-4.44-3.21v-2.46h37.17c3.1,0,6.33.37,9.7,1.09,3.37.73,6.85,1.91,10.45,3.55,3.6,1.64,6.81,3.67,9.63,6.08,2.82,2.42,5.15,5.49,6.97,9.22,1.82,3.74,2.73,7.84,2.73,12.3,0,4.83-1.07,9.32-3.21,13.46-2.14,4.15-4.69,7.43-7.65,9.84-2.96,2.42-5.81,4.28-8.54,5.6-2.73,1.32-4.92,1.98-6.56,1.98Zm-26.65-10.93h12.03c2.19,0,4.42-.27,6.7-.82,2.28-.55,4.62-1.48,7.04-2.8,2.41-1.32,4.39-3.35,5.94-6.08,1.55-2.73,2.32-5.97,2.32-9.7s-.8-6.99-2.39-9.77c-1.6-2.78-3.62-4.87-6.08-6.29-2.46-1.41-4.56-2.41-6.29-3.01-1.73-.59-3.42-1.03-5.06-1.3-2.64-.45-7.38-.77-14.21-.96v40.72Z"/>
      <path class="cls-4" d="m689.31,172.04h30.47v2.46c-1.55,0-3.01,1-4.37,3.01-1.37,2-2.05,3.96-2.05,5.88v88.55c0,2.28.66,4.33,1.98,6.15,1.32,1.82,2.8,2.73,4.44,2.73v2.6h-30.47v-2.6c1.64,0,3.14-.93,4.51-2.8,1.37-1.87,2.05-3.89,2.05-6.08v-88.55c0-1.73-.71-3.64-2.12-5.74-1.41-2.09-2.89-3.14-4.44-3.14v-2.46Z"/>
      <path class="cls-4" d="m810.38,271.93c.55,2.19,1.89,4.24,4.03,6.15,2.14,1.91,4.08,2.87,5.81,2.87v2.46h-30.61v-2.46c1.37,0,2.5-.61,3.42-1.84.91-1.23,1.37-2.75,1.37-4.58,0-.91-.14-1.78-.41-2.6l-.55-1.37c-.27-.82-.77-2.44-1.5-4.85-.73-2.41-1.69-5.76-2.87-10.04h-32.66c-1.64,5.83-3.19,11.25-4.65,16.26-.27.82-.41,1.69-.41,2.6,0,1.82.45,3.35,1.37,4.58.91,1.23,2.05,1.84,3.42,1.84v2.46h-30.61v-2.46c1.73,0,3.67-.96,5.81-2.87,2.14-1.91,3.48-3.96,4.03-6.15l24.6-88.69c.91-3.64,1.37-5.56,1.37-5.74,0-2-1.14-3.01-3.42-3.01v-2.46h24.6c.36,1.28,5.01,17.95,13.94,50.01,8.93,32.07,13.57,48.7,13.94,49.88Zm-50.01-29.79h25.01c-1-3.73-3.1-11.59-6.29-23.57-3.19-11.98-5.29-19.79-6.29-23.44-1.09,3.92-3.23,11.98-6.42,24.19-3.19,12.21-5.19,19.81-6.01,22.82Z"/>
      <g>
        <path class="cls-4" d="m342.39,156.08c0,.8.24,1.52.72,2.18s1.01.98,1.58.98v.86h-9.19v-.86c.57,0,1.11-.34,1.6-1.01.49-.67.74-1.39.74-2.15v-3.16l-18.24-22.12v25.28c0,.8.24,1.52.72,2.18s1.01.98,1.58.98v.86h-9.19v-.86c.57,0,1.11-.34,1.6-1.01.49-.67.74-1.39.74-2.15v-30.45c0-.8-.33-1.61-.98-2.44-.65-.83-1.46-1.24-2.42-1.24v-.86h8l18.19,22.17v-18.19c0-.61-.25-1.28-.74-2.01-.5-.73-1.01-1.1-1.56-1.1v-.86h9.14v.86c-.54,0-1.05.35-1.53,1.05s-.72,1.39-.72,2.06c0,.42,0,5.55-.02,15.42-.02,9.86-.02,15.06-.02,15.61Z"/>
        <path class="cls-4" d="m352.33,126.66c3.78-3.88,8.31-5.82,13.57-5.82s9.78,1.94,13.55,5.82c3.77,3.88,5.65,8.51,5.65,13.91s-1.88,10.03-5.65,13.91c-3.77,3.88-8.28,5.82-13.55,5.82s-9.79-1.94-13.57-5.82c-3.78-3.88-5.67-8.51-5.67-13.91s1.89-10.03,5.67-13.91Zm4.48,25.49c2.46,2.94,5.49,4.4,9.1,4.4s6.63-1.49,9.07-4.48c2.44-2.98,3.66-6.87,3.66-11.66,0-5.14-1.2-9.07-3.59-11.8-2.39-2.73-5.44-4.09-9.14-4.09s-6.76,1.39-9.17,4.17c-2.41,2.78-3.61,6.73-3.61,11.87,0,4.79,1.23,8.65,3.69,11.59Z"/>
        <path class="cls-4" d="m400.56,120.7c2.11,0,4.12.34,6.06,1.03,1.93.69,3.33,1.36,4.19,2.03l1.34,1.01-3.35,5.65-1.1-.48c-.03-.25-.05-.61-.05-1.05,0-.77-.72-1.58-2.15-2.44-1.44-.86-3.08-1.29-4.93-1.29-2.2,0-4.13.42-5.77,1.24-1.64.83-2.47,2.01-2.47,3.54,0,1.09.39,2.03,1.17,2.85.78.81,1.8,1.5,3.06,2.06,1.26.56,2.65,1.09,4.17,1.6,1.52.51,3.03,1.1,4.55,1.77,1.52.67,2.9,1.44,4.16,2.32,1.26.88,2.28,2.03,3.06,3.47.78,1.44,1.17,3.08,1.17,4.93,0,1.72-.4,3.28-1.2,4.67-.8,1.39-1.78,2.5-2.94,3.33-1.17.83-2.45,1.52-3.85,2.08-1.4.56-2.67.94-3.78,1.15-1.12.21-2.08.31-2.87.31-1.85,0-3.58-.12-5.19-.36-1.61-.24-2.9-.54-3.88-.91-.97-.37-1.8-.73-2.49-1.08-.69-.35-1.17-.65-1.46-.91l-.43-.34,3.35-5.98,1.15.57c.03.26.05.59.05,1.01,0,.7.79,1.47,2.37,2.3,1.58.83,3.5,1.24,5.77,1.24,2.84,0,5.15-.64,6.94-1.91,1.79-1.28,2.68-2.63,2.68-4.07,0-1.12-.39-2.1-1.17-2.94-.78-.85-1.79-1.56-3.02-2.13-1.23-.57-2.59-1.13-4.09-1.68-1.5-.54-3.01-1.16-4.52-1.84-1.52-.69-2.89-1.48-4.12-2.37-1.23-.89-2.23-2.07-3.02-3.54-.78-1.47-1.17-3.16-1.17-5.07,0-1.76.48-3.3,1.44-4.64.96-1.34,2.19-2.36,3.69-3.06,1.5-.7,2.98-1.22,4.45-1.56,1.47-.34,2.87-.5,4.21-.5Z"/>
        <path class="cls-4" d="m430.63,120.7c2.11,0,4.12.34,6.06,1.03,1.93.69,3.33,1.36,4.19,2.03l1.34,1.01-3.35,5.65-1.1-.48c-.03-.25-.05-.61-.05-1.05,0-.77-.72-1.58-2.15-2.44-1.44-.86-3.08-1.29-4.93-1.29-2.2,0-4.13.42-5.77,1.24-1.64.83-2.47,2.01-2.47,3.54,0,1.09.39,2.03,1.17,2.85.78.81,1.8,1.5,3.06,2.06,1.26.56,2.65,1.09,4.17,1.6,1.52.51,3.03,1.1,4.55,1.77,1.52.67,2.9,1.44,4.16,2.32,1.26.88,2.28,2.03,3.06,3.47.78,1.44,1.17,3.08,1.17,4.93,0,1.72-.4,3.28-1.2,4.67-.8,1.39-1.78,2.5-2.94,3.33-1.17.83-2.45,1.52-3.85,2.08-1.4.56-2.67.94-3.78,1.15-1.12.21-2.08.31-2.87.31-1.85,0-3.58-.12-5.19-.36-1.61-.24-2.9-.54-3.88-.91-.97-.37-1.8-.73-2.49-1.08-.69-.35-1.17-.65-1.46-.91l-.43-.34,3.35-5.98,1.15.57c.03.26.05.59.05,1.01,0,.7.79,1.47,2.37,2.3,1.58.83,3.5,1.24,5.77,1.24,2.84,0,5.15-.64,6.94-1.91,1.79-1.28,2.68-2.63,2.68-4.07,0-1.12-.39-2.1-1.17-2.94-.78-.85-1.79-1.56-3.02-2.13-1.23-.57-2.59-1.13-4.09-1.68-1.5-.54-3.01-1.16-4.52-1.84-1.52-.69-2.89-1.48-4.12-2.37-1.23-.89-2.23-2.07-3.02-3.54-.78-1.47-1.17-3.16-1.17-5.07,0-1.76.48-3.3,1.44-4.64.96-1.34,2.19-2.36,3.69-3.06,1.5-.7,2.98-1.22,4.45-1.56,1.47-.34,2.87-.5,4.21-.5Z"/>
        <path class="cls-4" d="m473.14,156.08c.19.77.66,1.48,1.41,2.15.75.67,1.43,1.01,2.03,1.01v.86h-10.72v-.86c.48,0,.88-.22,1.2-.65.32-.43.48-.97.48-1.6,0-.32-.05-.62-.14-.91l-.19-.48c-.1-.29-.27-.85-.53-1.7-.26-.85-.59-2.02-1.01-3.52h-11.44c-.57,2.04-1.12,3.94-1.63,5.7-.1.29-.14.59-.14.91,0,.64.16,1.17.48,1.6.32.43.72.65,1.2.65v.86h-10.72v-.86c.61,0,1.28-.34,2.03-1.01.75-.67,1.22-1.39,1.41-2.15l8.62-31.07c.32-1.28.48-1.95.48-2.01,0-.7-.4-1.05-1.2-1.05v-.86h8.62c.13.45,1.76,6.29,4.88,17.52,3.13,11.24,4.76,17.06,4.88,17.47Zm-17.52-10.44h8.76c-.35-1.31-1.09-4.06-2.2-8.26-1.12-4.2-1.85-6.93-2.2-8.21-.38,1.37-1.13,4.2-2.25,8.47-1.12,4.28-1.82,6.94-2.11,7.99Z"/>
      </g>
      <g>
        <path class="cls-4" d="m508.43,120.7c2.11,0,4.12.34,6.06,1.03,1.93.69,3.33,1.36,4.19,2.03l1.34,1.01-3.35,5.65-1.1-.48c-.03-.25-.05-.61-.05-1.05,0-.77-.72-1.58-2.15-2.44-1.44-.86-3.08-1.29-4.93-1.29-2.2,0-4.13.42-5.77,1.24-1.64.83-2.47,2.01-2.47,3.54,0,1.09.39,2.03,1.17,2.85.78.81,1.8,1.5,3.06,2.06,1.26.56,2.65,1.09,4.17,1.6,1.52.51,3.03,1.1,4.55,1.77,1.52.67,2.9,1.44,4.16,2.32,1.26.88,2.28,2.03,3.06,3.47.78,1.44,1.17,3.08,1.17,4.93,0,1.72-.4,3.28-1.2,4.67-.8,1.39-1.78,2.5-2.94,3.33-1.17.83-2.45,1.52-3.85,2.08-1.4.56-2.67.94-3.78,1.15-1.12.21-2.08.31-2.87.31-1.85,0-3.58-.12-5.19-.36-1.61-.24-2.9-.54-3.88-.91-.97-.37-1.8-.73-2.49-1.08-.69-.35-1.17-.65-1.46-.91l-.43-.34,3.35-5.98,1.15.57c.03.26.05.59.05,1.01,0,.7.79,1.47,2.37,2.3,1.58.83,3.5,1.24,5.77,1.24,2.84,0,5.15-.64,6.94-1.91,1.79-1.28,2.68-2.63,2.68-4.07,0-1.12-.39-2.1-1.17-2.94-.78-.85-1.79-1.56-3.02-2.13-1.23-.57-2.59-1.13-4.09-1.68-1.5-.54-3.01-1.16-4.52-1.84-1.52-.69-2.89-1.48-4.12-2.37-1.23-.89-2.23-2.07-3.02-3.54-.78-1.47-1.17-3.16-1.17-5.07,0-1.76.48-3.3,1.44-4.64.96-1.34,2.19-2.36,3.69-3.06,1.5-.7,2.98-1.22,4.45-1.56,1.47-.34,2.87-.5,4.21-.5Z"/>
        <path class="cls-4" d="m549.37,153.07l1.01,7.04h-26.86v-.91c.57,0,1.1-.33,1.58-.98s.72-1.36.72-2.13v-31.07c0-.61-.25-1.27-.74-1.99-.5-.72-1.01-1.08-1.56-1.08v-.86h25.95l-.96,6.22h-1.01c0-.54-.35-1.06-1.05-1.56-.7-.5-1.39-.74-2.06-.74h-12.45v11.15h8.76c.61,0,1.28-.25,2.01-.74.73-.49,1.1-1.01,1.1-1.56h.81v8.43h-.81c0-.54-.35-1.05-1.05-1.53-.7-.48-1.39-.72-2.06-.72h-8.76v16.13h13.41c.64,0,1.32-.37,2.06-1.13.73-.75,1.1-1.41,1.1-1.99h.86Z"/>
        <path class="cls-4" d="m583.12,156.08c0,.8.24,1.52.72,2.18s1.01.98,1.58.98v.86h-9.19v-.86c.57,0,1.11-.34,1.6-1.01.49-.67.74-1.39.74-2.15v-3.16l-18.24-22.12v25.28c0,.8.24,1.52.72,2.18s1,.98,1.58.98v.86h-9.19v-.86c.57,0,1.11-.34,1.6-1.01.49-.67.74-1.39.74-2.15v-30.45c0-.8-.33-1.61-.98-2.44-.65-.83-1.46-1.24-2.42-1.24v-.86h8l18.19,22.17v-18.19c0-.61-.25-1.28-.74-2.01-.5-.73-1.01-1.1-1.56-1.1v-.86h9.14v.86c-.54,0-1.05.35-1.53,1.05-.48.7-.72,1.39-.72,2.06,0,.42,0,5.55-.02,15.42-.02,9.86-.02,15.06-.02,15.61Z"/>
        <path class="cls-4" d="m621.47,122c-.54,0-1.06.34-1.56,1.03-.5.69-.74,1.36-.74,2.03v31.02c0,.8.24,1.52.72,2.18.48.65,1.01.98,1.58.98v.86h-10.72v-.86c.57,0,1.09-.34,1.56-1.01s.69-1.39.69-2.15v-16.04h-17.24v16.04c0,.8.24,1.52.72,2.18.48.65,1.01.98,1.58.98v.86h-10.68v-.86c.57,0,1.1-.34,1.58-1.01.48-.67.72-1.39.72-2.15v-31.02c0-.61-.25-1.27-.74-1.99-.5-.72-1.01-1.08-1.56-1.08v-.91h10.68v.91c-.54,0-1.06.34-1.56,1.03-.5.69-.74,1.36-.74,2.03v11.11h17.24v-11.11c0-.61-.24-1.27-.72-1.99-.48-.72-.99-1.08-1.53-1.08v-.91h10.72v.91Z"/>
        <path class="cls-4" d="m629.1,126.66c3.78-3.88,8.31-5.82,13.57-5.82s9.78,1.94,13.55,5.82c3.77,3.88,5.65,8.51,5.65,13.91s-1.88,10.03-5.65,13.91c-3.77,3.88-8.28,5.82-13.55,5.82s-9.79-1.94-13.57-5.82c-3.78-3.88-5.67-8.51-5.67-13.91s1.89-10.03,5.67-13.91Zm4.48,25.49c2.46,2.94,5.49,4.4,9.1,4.4s6.63-1.49,9.07-4.48c2.44-2.98,3.66-6.87,3.66-11.66,0-5.14-1.2-9.07-3.59-11.8-2.39-2.73-5.44-4.09-9.14-4.09s-6.76,1.39-9.17,4.17c-2.41,2.78-3.61,6.73-3.61,11.87,0,4.79,1.23,8.65,3.69,11.59Z"/>
        <path class="cls-4" d="m681.6,143.2c.25.42.87,1.48,1.84,3.21.97,1.72,1.8,3.11,2.47,4.17.67,1.05,1.51,2.28,2.51,3.69,1.01,1.4,1.99,2.51,2.97,3.33.97.81,1.92,1.33,2.85,1.56v.96h-9.1l-8.86-16.56h-4.02v12.54c0,.8.23,1.52.69,2.15.46.64.98.96,1.56.96v.91h-10.68v-.91c.57,0,1.1-.33,1.58-.98.48-.65.72-1.36.72-2.13v-30.98c0-.61-.25-1.28-.74-2.03-.5-.75-1.01-1.13-1.56-1.13v-.86h13.02c1.08,0,2.22.13,3.4.38,1.18.26,2.4.67,3.66,1.24,1.26.57,2.39,1.29,3.38,2.13.99.85,1.8,1.92,2.44,3.23.64,1.31.96,2.75.96,4.31,0,1.69-.38,3.26-1.13,4.72-.75,1.45-1.64,2.6-2.68,3.45-1.04.85-2.03,1.5-2.99,1.96-.96.46-1.72.69-2.3.69Zm-9.34-3.83h4.21c.77,0,1.55-.1,2.35-.29.8-.19,1.62-.52,2.47-.98.85-.46,1.54-1.17,2.08-2.13s.81-2.09.81-3.4-.28-2.45-.84-3.42c-.56-.97-1.27-1.71-2.13-2.2-.86-.49-1.6-.85-2.2-1.05-.61-.21-1.2-.36-1.77-.45-.93-.16-2.59-.27-4.98-.34v14.27Z"/>
        <path class="cls-4" d="m725.93,156.08c.19.77.66,1.48,1.41,2.15.75.67,1.43,1.01,2.03,1.01v.86h-10.72v-.86c.48,0,.88-.22,1.2-.65.32-.43.48-.97.48-1.6,0-.32-.05-.62-.14-.91l-.19-.48c-.1-.29-.27-.85-.53-1.7-.26-.85-.59-2.02-1.01-3.52h-11.44c-.57,2.04-1.12,3.94-1.63,5.7-.1.29-.14.59-.14.91,0,.64.16,1.17.48,1.6s.72.65,1.2.65v.86h-10.72v-.86c.61,0,1.28-.34,2.03-1.01.75-.67,1.22-1.39,1.41-2.15l8.62-31.07c.32-1.28.48-1.95.48-2.01,0-.7-.4-1.05-1.2-1.05v-.86h8.62c.13.45,1.75,6.29,4.88,17.52,3.13,11.24,4.76,17.06,4.88,17.47Zm-17.52-10.44h8.76c-.35-1.31-1.09-4.06-2.2-8.26-1.12-4.2-1.85-6.93-2.2-8.21-.38,1.37-1.13,4.2-2.25,8.47-1.12,4.28-1.82,6.94-2.11,7.99Z"/>
      </g>
      <g>
        <path class="cls-4" d="m757.92,121.09c5.43,0,10.05,1.91,13.88,5.72,3.83,3.81,5.75,8.4,5.75,13.76s-1.92,9.96-5.75,13.79-8.46,5.75-13.88,5.75h-11.68v-.91c.7,0,1.25-.3,1.65-.91.4-.61.6-1.34.6-2.2v-31.07c0-.61-.25-1.26-.74-1.96-.5-.7-1-1.05-1.51-1.05v-.91h11.68Zm0,35.43c3.61,0,6.7-1.56,9.29-4.69,2.59-3.13,3.88-6.88,3.88-11.25s-1.29-8.11-3.88-11.2c-2.59-3.1-5.68-4.64-9.29-4.64h-3.3v31.79h3.3Z"/>
        <path class="cls-4" d="m804.41,156.08c.19.77.66,1.48,1.41,2.15.75.67,1.43,1.01,2.03,1.01v.86h-10.72v-.86c.48,0,.88-.22,1.2-.65.32-.43.48-.97.48-1.6,0-.32-.05-.62-.14-.91l-.19-.48c-.1-.29-.27-.85-.53-1.7-.26-.85-.59-2.02-1.01-3.52h-11.44c-.57,2.04-1.12,3.94-1.63,5.7-.1.29-.14.59-.14.91,0,.64.16,1.17.48,1.6s.72.65,1.2.65v.86h-10.72v-.86c.61,0,1.28-.34,2.03-1.01.75-.67,1.22-1.39,1.41-2.15l8.62-31.07c.32-1.28.48-1.95.48-2.01,0-.7-.4-1.05-1.2-1.05v-.86h8.62c.13.45,1.75,6.29,4.88,17.52,3.13,11.24,4.76,17.06,4.88,17.47Zm-17.52-10.44h8.76c-.35-1.31-1.09-4.06-2.2-8.26-1.12-4.2-1.85-6.93-2.2-8.21-.38,1.37-1.13,4.2-2.25,8.47-1.12,4.28-1.82,6.94-2.11,7.99Z"/>
      </g>
      <path class="cls-4" d="m575.2,187.96c-.08-.08-.16-.15-.24-.24l-10.06,8.74c5.32,7.59,7.98,17.84,7.98,30.78,0,13.66-3.49,24.76-10.45,33.27-6.97,8.52-15.6,12.78-25.9,12.78s-18.95-4.19-25.96-12.57c-7.02-8.38-10.52-19.4-10.52-33.07,0-14.67,3.44-25.96,10.32-33.89,6.88-7.93,15.6-11.89,26.17-11.89,8.14,0,15.17,2.32,21.09,6.94l4.51-11.02c-7.7-4.3-16.24-6.45-25.61-6.45-15.03,0-27.95,5.53-38.74,16.6-10.8,11.07-16.19,24.3-16.19,39.7s5.4,28.63,16.19,39.7c10.8,11.07,23.71,16.6,38.74,16.6s27.92-5.53,38.67-16.6c10.75-11.07,16.13-24.3,16.13-39.7s-5.38-28.63-16.13-39.7Z"/>
      <polygon class="cls-4" points="589.75 172.04 559.98 197.91 556.55 197.91 567.15 172.04 589.75 172.04"/>
      <g>
        <path class="cls-4" d="m481.68,91.9c0,2.13-.72,3.76-2.17,4.9s-3.5,1.7-6.15,1.7h-3.41v9.11h-1.54v-22.05h5.4c5.25,0,7.87,2.11,7.87,6.33Zm-11.73,5.28h3.03c2.48,0,4.28-.41,5.38-1.23s1.66-2.15,1.66-3.99c0-1.7-.52-2.96-1.57-3.78s-2.66-1.23-4.86-1.23h-3.65v10.22Z"/>
        <path class="cls-4" d="m503.26,99.83h-8.96l-3.08,7.78h-1.7l8.87-22.14h.98l8.69,22.14h-1.73l-3.06-7.78Zm-8.4-1.39h7.89l-3-7.95c-.25-.62-.55-1.49-.9-2.59-.27.97-.57,1.84-.89,2.62l-3.09,7.92Z"/>
        <path class="cls-4" d="m518.9,98.01v9.61h-1.54v-22.05h5.25c2.73,0,4.76.51,6.06,1.52,1.31,1.01,1.96,2.53,1.96,4.56,0,1.48-.39,2.72-1.17,3.74-.78,1.02-1.96,1.74-3.55,2.19l5.99,10.04h-1.84l-5.69-9.61h-5.47Zm0-1.33h4.21c1.86,0,3.3-.41,4.33-1.24,1.03-.83,1.54-2.05,1.54-3.67s-.5-2.9-1.51-3.66c-1.01-.76-2.64-1.15-4.92-1.15h-3.65v9.73Z"/>
        <path class="cls-4" d="m560.42,96.56c0,3.5-.87,6.27-2.62,8.3-1.75,2.04-4.16,3.05-7.24,3.05s-5.47-1.02-7.22-3.05c-1.75-2.04-2.62-4.81-2.62-8.33s.88-6.27,2.65-8.29c1.76-2.02,4.17-3.02,7.23-3.02s5.48,1.01,7.22,3.04c1.74,2.03,2.61,4.79,2.61,8.3Zm-18.04,0c0,3.16.7,5.6,2.11,7.32s3.43,2.59,6.06,2.59,4.68-.85,6.08-2.56c1.4-1.71,2.1-4.16,2.1-7.34s-.7-5.61-2.1-7.31-3.42-2.54-6.05-2.54-4.65.85-6.07,2.56-2.13,4.14-2.13,7.28Zm6.73-13c.73-.79,1.46-1.66,2.18-2.59s1.21-1.64,1.47-2.12h2.13v.26c-.36.52-.98,1.22-1.85,2.08s-1.83,1.73-2.87,2.61h-1.06v-.24Z"/>
        <path class="cls-4" d="m590.19,96.56c0,2.96-.63,5.4-1.9,7.34-1.27,1.94-3.02,3.17-5.26,3.72l5.02,5.25h-2.5l-4.25-4.98-.5.03h-.47c-3.07,0-5.47-1.02-7.22-3.05-1.75-2.04-2.62-4.81-2.62-8.33s.88-6.27,2.65-8.29c1.76-2.02,4.17-3.02,7.23-3.02s5.48,1.01,7.22,3.04c1.74,2.03,2.61,4.79,2.61,8.3Zm-18.04,0c0,3.16.7,5.6,2.11,7.32s3.43,2.59,6.06,2.59,4.68-.85,6.08-2.56c1.4-1.71,2.1-4.16,2.1-7.34s-.7-5.61-2.1-7.31-3.42-2.54-6.05-2.54-4.65.85-6.07,2.56-2.13,4.14-2.13,7.28Z"/>
        <path class="cls-4" d="m617.65,85.57v14.27c0,2.53-.73,4.51-2.2,5.94-1.47,1.43-3.51,2.14-6.14,2.14s-4.55-.72-5.98-2.15-2.15-3.43-2.15-5.99v-14.2h1.55v14.27c0,2.12.59,3.77,1.76,4.95,1.18,1.18,2.84,1.77,4.99,1.77s3.73-.58,4.89-1.74c1.16-1.16,1.73-2.77,1.73-4.83v-14.42h1.54Z"/>
        <path class="cls-4" d="m629.83,107.61v-22.05h1.54v22.05h-1.54Z"/>
        <path class="cls-4" d="m654.4,99.83h-8.96l-3.08,7.78h-1.7l8.87-22.14h.98l8.69,22.14h-1.73l-3.06-7.78Zm-8.4-1.39h7.89l-3-7.95c-.25-.62-.55-1.49-.9-2.59-.27.97-.57,1.84-.89,2.62l-3.09,7.92Z"/>
      </g>
    </g>
  </g>
</svg>